<svg xmlns="http://www.w3.org/2000/svg" xmlns:xlink="http://www.w3.org/1999/xlink" viewBox="0 0 313.62 313.62"><defs><style>.cls-1{fill:#4e4e4e;}.cls-2{fill:#2b2b2b;}.cls-3{fill:url(#linear-gradient);}.cls-4{fill:url(#linear-gradient-2);}</style><linearGradient id="linear-gradient" x1="41.92" y1="161.39" x2="143.87" y2="191.07" gradientUnits="userSpaceOnUse"><stop offset="0" stop-color="#111"/><stop offset="1" stop-color="#484848"/></linearGradient><linearGradient id="linear-gradient-2" x1="-2495.01" y1="-45.25" x2="-2385.36" y2="-13.33" gradientTransform="translate(-2224.85 101.87) rotate(180)" xlink:href="#linear-gradient"/></defs><g id="Icon_Black" data-name="Icon Black"><path class="cls-1" d="M73,127.12l2.87-2.88L65.09,95.42,21.63,139l14.12,37.83L65.09,147.4l-2.2-6.72,6.41-6.43,2.43,6.49,4.6-4.62Zm-11.84,5.33-5.66-15,10-10,5.65,15Z"/><polygon class="cls-1" points="83.01 121.76 87.64 134.15 80.41 141.4 75.78 129 83.01 121.76"/><polygon class="cls-1" points="78.98 93.84 72.74 100.1 75.92 108.6 82.16 102.34 78.98 93.84"/><polygon class="cls-1" points="87.69 106.87 90.11 113.37 86.14 117.36 83.71 110.86 87.69 106.87"/><polygon class="cls-1" points="89.74 122.67 93.82 133.59 99.55 127.85 95.47 116.93 89.74 122.67"/><polygon class="cls-1" points="93.39 100.14 98.23 95.29 101.85 105.01 97.02 109.86 93.39 100.14"/><polygon class="cls-2" points="125.55 168.5 62.03 150.47 35.75 176.83 139.56 206.01 125.55 168.5"/><polygon id="Gradient" class="cls-3" points="125.55 168.5 62.03 150.47 35.75 176.83 139.56 206.01 125.55 168.5"/><path class="cls-1" d="M236.77,184l-3.09,3.1,11.57,31L292,171.2,276.8,130.52l-31.55,31.65,2.36,7.23-6.9,6.92-2.61-7-4.95,5Zm12.74-5.73,6.08,16.17-10.8,10.8-6.08-16.12Z"/><polygon class="cls-1" points="225.97 189.75 220.99 176.42 228.76 168.63 233.74 181.96 225.97 189.75"/><polygon class="cls-1" points="230.3 219.78 237.01 213.04 233.6 203.91 226.89 210.64 230.3 219.78"/><polygon class="cls-1" points="220.94 205.76 218.33 198.77 222.61 194.47 225.22 201.47 220.94 205.76"/><polygon class="cls-1" points="218.73 188.77 214.34 177.03 208.18 183.2 212.57 194.94 218.73 188.77"/><polygon class="cls-1" points="214.8 213 209.6 218.22 205.7 207.76 210.9 202.55 214.8 213"/><polygon class="cls-2" points="180.21 139.48 248.53 158.87 276.8 130.52 165.15 99.13 180.21 139.48"/><polygon id="Gradient-2" data-name="Gradient" class="cls-4" points="180.21 139.48 248.53 158.87 276.8 130.52 165.15 99.13 180.21 139.48"/></g></svg>