<svg xmlns="http://www.w3.org/2000/svg" xmlns:xlink="http://www.w3.org/1999/xlink" viewBox="0 0 509.82 151.01"><defs><style>.cls-1{fill:#2e2e2e;}.cls-2{fill:#4e4e4e;}.cls-3{fill:#2b2b2b;}.cls-4{fill:url(#linear-gradient);}.cls-5{fill:url(#linear-gradient-2);}</style><linearGradient id="linear-gradient" x1="-59.7" y1="-598.26" x2="12.85" y2="-577.14" gradientTransform="translate(126.93 -546.4) rotate(180)" gradientUnits="userSpaceOnUse"><stop offset="0" stop-color="#111"/><stop offset="1" stop-color="#484848"/></linearGradient><linearGradient id="linear-gradient-2" x1="35.62" y1="61.3" x2="103.07" y2="80.94" gradientTransform="matrix(1, 0, 0, 1, 0, 0)" xlink:href="#linear-gradient"/></defs><g id="Horizontal_Black" data-name="Horizontal Black"><path class="cls-1" d="M223,48.84h-.12a2.38,2.38,0,0,0-.76-1.78,2.48,2.48,0,0,0-1.8-.74h-.48l0-.4H223ZM223,71v2.92h-3.2l0-.4h.48a2.48,2.48,0,0,0,1.8-.74,2.38,2.38,0,0,0,.76-1.78Zm2.48-25.08v28h-2.6v-28Zm2.28,0a11.9,11.9,0,0,1,4.74.84,6.46,6.46,0,0,1,2.94,2.34,6.14,6.14,0,0,1,1,3.5,6.37,6.37,0,0,1-.64,2.94,5.85,5.85,0,0,1-1.64,2,6.06,6.06,0,0,1-2.12,1.1,8.37,8.37,0,0,1,3.66,1.4,7.19,7.19,0,0,1,2.36,2.7,7.87,7.87,0,0,1,.82,3.62,7.19,7.19,0,0,1-1.08,3.94A7.1,7.1,0,0,1,234.65,73a12.26,12.26,0,0,1-5.06.94h-4.44c0-.48,0-1,0-1.44h4.24a7.67,7.67,0,0,0,3.52-.74,5,5,0,0,0,2.2-2.18,7.25,7.25,0,0,0,.76-3.44,6.81,6.81,0,0,0-.86-3.64,5.71,5.71,0,0,0-2.22-2.12,9.35,9.35,0,0,0-2.94-1,19,19,0,0,0-3-.26v-.36a11.9,11.9,0,0,0,2-.2,6.5,6.5,0,0,0,2.16-.8A4.61,4.61,0,0,0,232.79,56a6.11,6.11,0,0,0,.68-3.1,6.64,6.64,0,0,0-.66-3.08,4.38,4.38,0,0,0-2-1.94,7,7,0,0,0-3.22-.66H224a1.86,1.86,0,0,0-.1-.34c-.06-.2-.16-.51-.3-.94Z"/><path class="cls-1" d="M251,45.92v2.4h-.12a1.82,1.82,0,0,0-.62-1.44,2.16,2.16,0,0,0-1.5-.56h-.64v-.4Zm2.48,0v17.6a11.68,11.68,0,0,0,1.06,5.08A7.91,7.91,0,0,0,262,73.24a9.18,9.18,0,0,0,4.68-1.16,8.06,8.06,0,0,0,3.12-3.22A9.89,9.89,0,0,0,270.91,64V45.92h1.88V64a10.73,10.73,0,0,1-1.34,5.46,9.39,9.39,0,0,1-3.78,3.66A11.74,11.74,0,0,1,262,74.48a12.42,12.42,0,0,1-5.82-1.3,9.53,9.53,0,0,1-3.88-3.64,10.55,10.55,0,0,1-1.38-5.46V45.92Zm2.76,0v.4h-.64a2.2,2.2,0,0,0-1.5.56,1.85,1.85,0,0,0-.62,1.44h-.08v-2.4Zm14.76,0v2.4h-.12a1.82,1.82,0,0,0-.62-1.44,2.16,2.16,0,0,0-1.5-.56h-.64v-.4Zm4.52,0v.4h-.64a2.2,2.2,0,0,0-1.5.56,1.85,1.85,0,0,0-.62,1.44h-.08v-2.4Z"/><path class="cls-1" d="M287.07,71v2.92h-4.44v-.4h.64a3,3,0,0,0,1.92-.66,2.69,2.69,0,0,0,1-1.86Zm2.12-25.64h.4l.8,2.36L288,73.92h-2.16Zm-1,26.28v.2a1.81,1.81,0,0,0,.46,1.18,1.41,1.41,0,0,0,1.1.54h.6v.36H288V71.64Zm1.36-26.28,11.52,24.92-.92,4.2L288.83,49.84Zm22.08,0L312,48,302,70.4c-.4.91-.7,1.67-.92,2.3a10.25,10.25,0,0,0-.44,1.78h-.4L299.63,72Zm.48,26.28h.28v2.28H310v-.36h.6a1.37,1.37,0,0,0,1.12-.54,1.79,1.79,0,0,0,.44-1.18v-.2ZM312,45.36l3.44,28.56h-3.12l-2.2-24.24,1.52-4.32ZM314.27,71h.84a2.89,2.89,0,0,0,1,1.86,3,3,0,0,0,1.88.66h.64v.4h-4.4Z"/><path class="cls-1" d="M330.15,48.84H330a2.52,2.52,0,0,0-.78-1.78,2.42,2.42,0,0,0-1.78-.74H327v-.4h3.2Zm0,22.16v2.92H327v-.4h.52a2.42,2.42,0,0,0,1.78-.74A2.52,2.52,0,0,0,330,71Zm2.48-25.08v28H330v-28Zm-.12,2.92V45.92h3.2v.4h-.52a2.46,2.46,0,0,0-1.78.74,2.6,2.6,0,0,0-.78,1.78Zm0,22.16h.12a2.6,2.6,0,0,0,.78,1.78,2.46,2.46,0,0,0,1.78.74h.52v.4h-3.2Z"/><path class="cls-1" d="M344.15,45.16a7.57,7.57,0,0,0,1.22.32c.55.11,1.16.2,1.82.28a15.57,15.57,0,0,0,1.84.12l-4.88.44Zm23.16.72v1.2H344.15v-1.2ZM346.91,47v.12a2.48,2.48,0,0,0-1.68.72,2.28,2.28,0,0,0-.68,1.68v.68l-.4,0V47Zm7.64,24v2.92h-3.2v-.4h.52a2.42,2.42,0,0,0,1.78-.74,2.52,2.52,0,0,0,.78-1.78ZM357,46V73.92h-2.6V46Zm-.12,25H357a2.6,2.6,0,0,0,.78,1.78,2.46,2.46,0,0,0,1.78.74h.52v.4h-3.2Zm10.4-25.84v1.16l-4.88-.44a15.25,15.25,0,0,0,1.86-.12c.66-.08,1.26-.17,1.82-.28A6,6,0,0,0,367.31,45.16Zm0,1.8V50.2l-.4,0v-.68a2.23,2.23,0,0,0-.7-1.68,2.47,2.47,0,0,0-1.66-.72V47Z"/><path class="cls-1" d="M223.49,98.27h-.06a1.19,1.19,0,0,0-.38-.89,1.26,1.26,0,0,0-.9-.37h-.24l0-.2h1.6Zm0,11.08v1.46h-1.6l0-.2h.24a1.22,1.22,0,0,0,.9-.37,1.16,1.16,0,0,0,.38-.89Zm1.24-12.54v14h-1.3v-14Zm1.14,0a5.91,5.91,0,0,1,2.37.42,3.23,3.23,0,0,1,1.47,1.17,3,3,0,0,1,.5,1.75,3.25,3.25,0,0,1-.32,1.47,3,3,0,0,1-.82,1,2.91,2.91,0,0,1-1.06.55,4.25,4.25,0,0,1,1.83.7,3.64,3.64,0,0,1,1.18,1.35,3.89,3.89,0,0,1,.41,1.81,3.57,3.57,0,0,1-.54,2,3.49,3.49,0,0,1-1.59,1.32,6,6,0,0,1-2.53.47h-2.22c0-.24,0-.48,0-.72h2.12a3.76,3.76,0,0,0,1.76-.37,2.47,2.47,0,0,0,1.1-1.09,3.55,3.55,0,0,0,.38-1.72,3.43,3.43,0,0,0-.43-1.82,2.82,2.82,0,0,0-1.11-1.06,4.81,4.81,0,0,0-1.47-.49,10.16,10.16,0,0,0-1.51-.13v-.18a5.49,5.49,0,0,0,1-.1,3.15,3.15,0,0,0,1.08-.4,2.31,2.31,0,0,0,.86-.89,3,3,0,0,0,.34-1.55,3.33,3.33,0,0,0-.33-1.54,2.19,2.19,0,0,0-1-1,3.52,3.52,0,0,0-1.61-.33H224s0-.07,0-.17l-.15-.47Z"/><path class="cls-1" d="M237.25,109.35a.9.9,0,0,0,.06.93.83.83,0,0,0,.64.33h.16v.2h-3.82v-.2h.16a1.5,1.5,0,0,0,.86-.29,2.23,2.23,0,0,0,.76-1Zm3.86-10.82.14,1.38-4.58,10.84h-1.26l4.74-10.16c.15-.32.27-.59.37-.83s.19-.46.27-.69a2.15,2.15,0,0,0,.14-.54Zm2.36,7.62v.6h-5.3v-.6Zm-2.36-7.62,5.5,12.16H245l-4.26-10.38Zm3.38,10.82H246a2.13,2.13,0,0,0,.74,1,1.52,1.52,0,0,0,.84.29h.16v.2h-4.1v-.2h.16a.79.79,0,0,0,.62-.33A.88.88,0,0,0,244.49,109.35Z"/><path class="cls-1" d="M252.13,109.57v1.24h-1.5v-.2H251a1.09,1.09,0,0,0,.78-.3.94.94,0,0,0,.32-.74Zm0-11.06.86,1.12,0,11.18h-.9V101a21.32,21.32,0,0,0-.18-2.5Zm0,0L263.17,109l.2,2.14-11.08-10.5Zm.88,11.06a1,1,0,0,0,.33.74,1.11,1.11,0,0,0,.77.3h.34v.2h-1.5v-1.24Zm9.52-9.52a1,1,0,0,0-.34-.74,1.09,1.09,0,0,0-.78-.3H261v-.2h1.5v1.24Zm.88-1.24v9.72c0,.43,0,.84,0,1.23s.07.84.14,1.33h-.18l-.88-1.06V98.81Zm-.06,1.24V98.81h1.5V99h-.34a1.11,1.11,0,0,0-.77.3,1,1,0,0,0-.33.74Z"/><path class="cls-1" d="M275.25,98.53a11.81,11.81,0,0,1,1.73.13,8.48,8.48,0,0,1,1.54.4,7.2,7.2,0,0,1,1.39.69l.44,2.82h-.18a4.79,4.79,0,0,0-.91-1.94,3.83,3.83,0,0,0-1.63-1.13,7.08,7.08,0,0,0-2.4-.37,5.11,5.11,0,0,0-2.67.69,4.79,4.79,0,0,0-1.79,2,7.47,7.47,0,0,0,0,6,4.65,4.65,0,0,0,1.8,2,5.17,5.17,0,0,0,2.68.69,6.88,6.88,0,0,0,1.6-.18,5.74,5.74,0,0,0,1.47-.57,6,6,0,0,0,1.33-1l0-2.66a.66.66,0,0,0-.23-.58,1.09,1.09,0,0,0-.69-.2h-.28v-.2h3.66v.2h-.28c-.6,0-.9.27-.9.8v2.4a6.93,6.93,0,0,1-1.26,1.18,7,7,0,0,1-1.91,1,7.34,7.34,0,0,1-2.53.4,7.5,7.5,0,0,1-3.45-.78,5.49,5.49,0,0,1-2.29-2.16,6.53,6.53,0,0,1-.82-3.34,6.64,6.64,0,0,1,.82-3.36,5.58,5.58,0,0,1,2.3-2.16A7.51,7.51,0,0,1,275.25,98.53Z"/><path class="cls-1" d="M287.07,100.09h0a1.06,1.06,0,0,0-.36-.77,1.21,1.21,0,0,0-.82-.31h-.24v-.2h1.46Zm0,9.44v1.28h-1.46v-.2h.24a1.13,1.13,0,0,0,.82-.32,1,1,0,0,0,.36-.76Zm1.24-10.72v12H287v-12Zm-.06,1.28V98.81h1.46V99h-.24a1.21,1.21,0,0,0-.82.31,1,1,0,0,0-.34.77Zm0,9.44h.06a1,1,0,0,0,.34.76,1.16,1.16,0,0,0,.84.32h.22v.2h-1.46ZM295.47,99l-5.52,5.9H289l5-5.9Zm-5.34,5.16,5.22,5.68a2.45,2.45,0,0,0,.72.6,2.21,2.21,0,0,0,1,.22v.2h-.74l-.59,0a3.85,3.85,0,0,1-.76-.14,3.17,3.17,0,0,1-.82-.34,3,3,0,0,1-.77-.63l-1.12-1.25-1.07-1.16c-.38-.4-.74-.79-1.07-1.16L289,104.85Zm6.64-5.3V99h-.08a3.31,3.31,0,0,0-1.15.2,2.26,2.26,0,0,0-.87.6l-1.36,0a.43.43,0,0,0,.07-.53.56.56,0,0,0-.51-.25h-.18v-.2h4.08Z"/><path class="cls-1" d="M306.31,98.53a7.61,7.61,0,0,1,2.63.45,6.54,6.54,0,0,1,2.16,1.29,6.31,6.31,0,0,1,1.45,7.09,6,6,0,0,1-1.45,2,6.54,6.54,0,0,1-2.16,1.29,7.88,7.88,0,0,1-5.25,0,6.59,6.59,0,0,1-2.15-1.29,6,6,0,0,1-2-4.54,6,6,0,0,1,2-4.54A6.59,6.59,0,0,1,303.69,99,7.55,7.55,0,0,1,306.31,98.53Zm0,12a5.11,5.11,0,0,0,4.58-2.72,6.63,6.63,0,0,0,0-5.93,5.2,5.2,0,0,0-1.9-2,5.31,5.31,0,0,0-5.34,0,5.27,5.27,0,0,0-1.9,2,6.63,6.63,0,0,0,0,5.93,5.16,5.16,0,0,0,1.9,2A5.08,5.08,0,0,0,306.31,110.49Z"/><path class="cls-1" d="M318.59,100.09h0a1.06,1.06,0,0,0-.36-.77,1.19,1.19,0,0,0-.82-.31h-.24v-.2h1.46Zm0,9.44v1.28h-1.46v-.2h.24a1.12,1.12,0,0,0,.82-.32,1,1,0,0,0,.36-.76Zm1.24-10.72v12h-1.28v-12Zm-.06,1.28V98.81h1.46V99H321a1.21,1.21,0,0,0-.82.31,1,1,0,0,0-.34.77Zm0,9.44h.06a1,1,0,0,0,.34.76,1.16,1.16,0,0,0,.84.32h.22v.2h-1.46ZM327,99l-5.52,5.9h-.94l5-5.9Zm-5.34,5.16,5.22,5.68a2.45,2.45,0,0,0,.72.6,2.24,2.24,0,0,0,1,.22v.2h-.74l-.59,0a3.85,3.85,0,0,1-.76-.14,3.17,3.17,0,0,1-.82-.34,3,3,0,0,1-.77-.63l-1.12-1.25-1.07-1.16c-.38-.4-.74-.79-1.07-1.16l-1.14-1.25Zm6.64-5.3V99h-.08a3.31,3.31,0,0,0-1.15.2,2.26,2.26,0,0,0-.87.6l-1.36,0a.43.43,0,0,0,.07-.53.56.56,0,0,0-.51-.25h-.18v-.2h4.08Z"/><path class="cls-1" d="M340.51,96.81V98h-.06a.92.92,0,0,0-.31-.72,1.12,1.12,0,0,0-.75-.28h-.32v-.2Zm1.24,0v8.8a5.82,5.82,0,0,0,.53,2.54,4,4,0,0,0,3.71,2.32,4.54,4.54,0,0,0,2.34-.58,4,4,0,0,0,1.56-1.61,4.88,4.88,0,0,0,.56-2.41V96.81h.94v9.06a5.36,5.36,0,0,1-.67,2.73,4.76,4.76,0,0,1-1.89,1.83,5.87,5.87,0,0,1-2.84.66,6.15,6.15,0,0,1-2.91-.65,4.73,4.73,0,0,1-1.94-1.82,5.27,5.27,0,0,1-.69-2.73V96.81Zm1.38,0V97h-.32a1.12,1.12,0,0,0-.75.28.92.92,0,0,0-.31.72h0v-1.2Zm7.38,0V98h-.06a.92.92,0,0,0-.31-.72,1.12,1.12,0,0,0-.75-.28h-.32v-.2Zm2.26,0V97h-.32a1.12,1.12,0,0,0-.75.28.92.92,0,0,0-.31.72h0v-1.2Z"/><path class="cls-1" d="M358,109.57v1.24h-1.5v-.2h.34a1.09,1.09,0,0,0,.78-.3,1,1,0,0,0,.32-.74Zm0-11.06.86,1.12,0,11.18h-.9V101a21.32,21.32,0,0,0-.18-2.5Zm0,0L369,109l.2,2.14-11.08-10.5Zm.88,11.06a1,1,0,0,0,.33.74,1.11,1.11,0,0,0,.77.3h.34v.2h-1.5v-1.24Zm9.52-9.52a1,1,0,0,0-.34-.74,1.09,1.09,0,0,0-.78-.3h-.34v-.2h1.5v1.24Zm.88-1.24v9.72c0,.43,0,.84,0,1.23s.07.84.14,1.33h-.18l-.88-1.06V98.81Zm-.06,1.24V98.81h1.5V99h-.34a1.11,1.11,0,0,0-.77.3,1,1,0,0,0-.33.74Z"/><path class="cls-1" d="M376.41,100.09h-.06a1,1,0,0,0-.41-.77A1.52,1.52,0,0,0,375,99h-.28v-.2h1.7Zm0,9.44v1.28h-1.7v-.2H375a1.42,1.42,0,0,0,.95-.32,1,1,0,0,0,.41-.76Zm1.2-10.72v12h-1.26v-12Zm-.06,1.28V98.81h1.7l0,.2H379a1.52,1.52,0,0,0-1,.31,1,1,0,0,0-.41.77Zm0,9.44h.06a1,1,0,0,0,.41.76,1.42,1.42,0,0,0,1,.32h.26l0,.2h-1.7Z"/><path class="cls-1" d="M385.77,100.27h-1.52a2.25,2.25,0,0,0-.74-1,1.55,1.55,0,0,0-.84-.29h-.16v-.2h4.1V99h-.16a.78.78,0,0,0-.61.33A1,1,0,0,0,385.77,100.27Zm3.38,10.82-5.5-12.16h1.58l4.26,10.38Zm0,0-.14-1.38,4.58-10.84h1.26L390.11,109c-.15.32-.27.6-.37.83s-.19.47-.27.69a2.38,2.38,0,0,0-.14.54ZM393,100.27a.88.88,0,0,0-.06-.93.83.83,0,0,0-.64-.33h-.14v-.2H396V99h-.16a1.58,1.58,0,0,0-.86.29,2.35,2.35,0,0,0-.76,1Z"/><path class="cls-1" d="M400.73,100.07h0a1.08,1.08,0,0,0-.34-.76,1.15,1.15,0,0,0-.82-.3h-.28v-.2H401Zm0,9.46.26,1.28h-1.74v-.2h.28a1.13,1.13,0,0,0,1.16-1.08ZM402,98.81v12h-1.28v-12Zm5.36,0v.62h-5.4v-.62Zm-.92,5.7v.6h-4.48v-.6Zm.94,5.68,0,.62h-5.38v-.62Zm1.12-2.24-1.1,2.86h-3l.68-.62a3.68,3.68,0,0,0,1.61-.29,2.53,2.53,0,0,0,1-.8,6.07,6.07,0,0,0,.66-1.15Zm-1.14-9.46V99l-2.28-.2a7.83,7.83,0,0,0,1.32-.11A4.78,4.78,0,0,0,407.33,98.49Zm-.92,4.92v1.14h-1v0a.73.73,0,0,0,.62-.25.92.92,0,0,0,.2-.59v-.26Zm0,1.66v1.14h-.22V106a1,1,0,0,0-.2-.59.76.76,0,0,0-.62-.25v0Zm.92-5.7v1.38h-.22v-.3a1,1,0,0,0-.27-.72.93.93,0,0,0-.73-.3v-.06Z"/><path class="cls-1" d="M413.71,100.07h0a1.08,1.08,0,0,0-.34-.76,1.12,1.12,0,0,0-.8-.3h-.28v-.2H414Zm0,9.46.24,1.28h-1.7v-.2h.28a1.06,1.06,0,0,0,.8-.32,1.09,1.09,0,0,0,.34-.76Zm1.22-10.72v12h-1.28v-12Zm-.06,10.72h.06a1.09,1.09,0,0,0,.34.76,1.06,1.06,0,0,0,.8.32h.26l0,.2h-1.72Zm2.4-10.72A6.24,6.24,0,0,1,419,99a3.75,3.75,0,0,1,1.28.64,2.87,2.87,0,0,1,.81,1,3.33,3.33,0,0,1-.12,2.92,3.3,3.3,0,0,1-1.11,1.18,3.52,3.52,0,0,1-1.61.56,2.56,2.56,0,0,1,.79.62,8.64,8.64,0,0,1,.77.94c.35.47.66.87.93,1.21s.54.67.81,1,.54.58.77.8a2.55,2.55,0,0,0,.76.53,2.18,2.18,0,0,0,.95.19v.2h-.62a4.92,4.92,0,0,1-1.81-.28,3.38,3.38,0,0,1-1.15-.69,7.89,7.89,0,0,1-.76-.79c0-.06-.18-.23-.37-.51l-.63-.89-.62-.87-.34-.47a5.78,5.78,0,0,0-.92-.93,1.77,1.77,0,0,0-1.1-.41v-.2a10.79,10.79,0,0,0,1.14,0,10.56,10.56,0,0,0,1.12-.09,2.18,2.18,0,0,0,1.05-.43,2.36,2.36,0,0,0,.77-1.2,2.87,2.87,0,0,0,.12-.52,3.16,3.16,0,0,0,0-.62,2.66,2.66,0,0,0-.21-1,2.4,2.4,0,0,0-.54-.76,2.56,2.56,0,0,0-.83-.5,3.58,3.58,0,0,0-1.08-.2c-.63,0-1.17,0-1.64,0a3.06,3.06,0,0,1-.7,0s0-.07-.05-.17-.08-.25-.15-.45Z"/><path class="cls-1" d="M430.65,98.53c.37,0,.7,0,1,0l.73.09.54.12.41.13,0,2h-.24a1.62,1.62,0,0,0-.56-1.29,2.68,2.68,0,0,0-1.74-.47,2.74,2.74,0,0,0-1.71.55,1.62,1.62,0,0,0-.69,1.35,1.91,1.91,0,0,0,.31,1.06,2.24,2.24,0,0,0,.47.52l4,3.12a2.31,2.31,0,0,1,.68,1,3.59,3.59,0,0,1,.24,1.17,2.81,2.81,0,0,1-.46,1.62,3.31,3.31,0,0,1-1.29,1.17,3.73,3.73,0,0,1-1.79.43,8.06,8.06,0,0,1-1.25-.1,6,6,0,0,1-1.25-.31,2.93,2.93,0,0,1-1-.53,3.41,3.41,0,0,1-.06-.71,5.94,5.94,0,0,1,.07-.91,6.12,6.12,0,0,1,.19-.86h.24a2.7,2.7,0,0,0,.26,1.54,2.23,2.23,0,0,0,1,1,3.15,3.15,0,0,0,1.54.31,3,3,0,0,0,1.95-.63,1.93,1.93,0,0,0,.71-1.57,2.21,2.21,0,0,0-.17-.87,2.16,2.16,0,0,0-.55-.73l-4-3.08a2.44,2.44,0,0,1-.76-1.06,3.42,3.42,0,0,1-.2-1.1,2.65,2.65,0,0,1,.44-1.48,3.12,3.12,0,0,1,1.19-1A3.57,3.57,0,0,1,430.65,98.53Zm2.64.18,0,.36h-1.42v-.36Z"/><path class="cls-1" d="M440.29,100.09h-.06a1,1,0,0,0-.41-.77,1.52,1.52,0,0,0-.95-.31h-.28v-.2h1.7Zm0,9.44v1.28h-1.7v-.2h.28a1.42,1.42,0,0,0,.95-.32,1,1,0,0,0,.41-.76Zm1.2-10.72v12h-1.26v-12Zm-.06,1.28V98.81h1.7l0,.2h-.26a1.52,1.52,0,0,0-1,.31,1,1,0,0,0-.41.77Zm0,9.44h.06a1,1,0,0,0,.41.76,1.42,1.42,0,0,0,1,.32h.26l0,.2h-1.7Z"/><path class="cls-1" d="M446.79,98.47a4.66,4.66,0,0,0,.55.14,6,6,0,0,0,.83.13,6.58,6.58,0,0,0,.86.05l-2.24.2Zm11,.32v.6h-11v-.6Zm-9.76.56v0a1,1,0,0,0-.73.31,1,1,0,0,0-.27.71v.32h-.22V99.35Zm3.66,10.18v1.28h-1.46v-.2h.24a1.13,1.13,0,0,0,.82-.32,1,1,0,0,0,.36-.76Zm1.26-10.66v11.94h-1.3V98.87Zm-.06,10.66h.06a1,1,0,0,0,.36.76,1.13,1.13,0,0,0,.82.32h.22v.2h-1.46Zm4.9-11.06V99l-2.24-.2a8.76,8.76,0,0,0,1.68-.18A5,5,0,0,0,457.77,98.47Zm0,.88v1.38h-.22v-.32a1,1,0,0,0-.27-.71,1,1,0,0,0-.73-.31v0Z"/><path class="cls-1" d="M464.21,100.07l-1.7-.06a2.5,2.5,0,0,0-.79-.73,2.05,2.05,0,0,0-1.05-.27h-.24v-.2h4.64V99h-.24a.67.67,0,0,0-.63.35A.7.7,0,0,0,464.21,100.07Zm-.7-1.24,3.7,6.58-.82.7-4.62-7.28Zm2.76,10.7v1.28h-1.46v-.2h.24a1.09,1.09,0,0,0,.81-.32,1.06,1.06,0,0,0,.35-.76Zm1.24-3.88v5.16h-1.3v-5.16Zm3.36-6.82h1.26l-4.76,7.24-.74-.22Zm-3.42,10.7h.06a1.06,1.06,0,0,0,.35.76,1.09,1.09,0,0,0,.81.32h.24v.2h-1.46Zm2.66-9.44a.7.7,0,0,0-.62-1.08h-.24v-.2h4.18V99h-.24a2,2,0,0,0-1.05.31,2.8,2.8,0,0,0-.77.71Z"/><path class="cls-1" d="M23,132.6v1.46H20.78v-.2h.32a1.51,1.51,0,0,0,1-.33,1.34,1.34,0,0,0,.5-.93Zm1.06-12.82h.2l.4,1.18-1.18,13.1H22.4Zm-.48,13.14v.1a.89.89,0,0,0,.23.59.71.71,0,0,0,.55.27h.3v.18H23.44v-1.14Zm.68-13.14L30,132.24l-.46,2.1L23.88,122Zm11,0,.16,1.34-5,11.18c-.2.46-.35.84-.46,1.15a5.76,5.76,0,0,0-.22.89h-.2l-.28-1.26Zm.24,13.14h.14v1.14H34.46v-.18h.3a.68.68,0,0,0,.56-.27.88.88,0,0,0,.22-.59v-.1Zm-.06-13.14,1.72,14.28H35.64l-1.1-12.12.76-2.16ZM36.6,132.6H37a1.44,1.44,0,0,0,.52.93,1.5,1.5,0,0,0,.94.33h.32v.2H36.6Z"/><path class="cls-1" d="M43.36,122.06v1.06h0a.86.86,0,0,0-.29-.61,1,1,0,0,0-.67-.25h-.3v-.2Zm1.24,0v7.56a4.43,4.43,0,0,0,1,3.06,3.43,3.43,0,0,0,2.71,1.12,4.09,4.09,0,0,0,3-1.06,3.83,3.83,0,0,0,1.09-2.9v-7.78h.92v7.78A4.2,4.2,0,0,1,52,133.13a5.19,5.19,0,0,1-3.65,1.21,5.3,5.3,0,0,1-3.65-1.2,4.16,4.16,0,0,1-1.35-3.28v-7.8Zm1.26,0v.2h-.3a1,1,0,0,0-.67.25.79.79,0,0,0-.29.61h0v-1.06Zm6.56,0v1.06h0a.78.78,0,0,0-.28-.61,1,1,0,0,0-.68-.25h-.3v-.2Zm2.14,0v.2h-.3a1,1,0,0,0-.66.25.87.87,0,0,0-.3.61h0v-1.06Z"/><path class="cls-1" d="M60.14,123.34h0a1.06,1.06,0,0,0-.36-.77,1.23,1.23,0,0,0-.84-.31h-.24v-.2h1.48Zm0,9.44.26,1.28H58.66v-.2h.28a1.13,1.13,0,0,0,1.16-1.08Zm1.24-10.72v12H60.1v-12Zm-.06,1.28v-1.28H62.8v.2h-.24a1.26,1.26,0,0,0-.83.31,1,1,0,0,0-.35.77Zm5.44,10.1,0,.62H61.34v-.62Zm1.12-2.24-1.1,2.86h-3l.68-.62a3.65,3.65,0,0,0,1.61-.29,2.53,2.53,0,0,0,1-.8,5.57,5.57,0,0,0,.66-1.15Z"/><path class="cls-1" d="M68.7,121.72a5.26,5.26,0,0,0,.55.14,6,6,0,0,0,.83.13,6.67,6.67,0,0,0,.86.05l-2.24.2Zm11,.32v.6h-11V122Zm-9.76.56v0a1,1,0,0,0-.73.31,1,1,0,0,0-.27.71V124H68.7V122.6Zm3.66,10.18v1.28H72.12v-.2h.24a1.13,1.13,0,0,0,.82-.32,1,1,0,0,0,.36-.76Zm1.26-10.66v11.94h-1.3V122.12Zm-.06,10.66h.06a1,1,0,0,0,.36.76,1.13,1.13,0,0,0,.82.32h.22v.2H74.78Zm4.9-11.06v.52l-2.24-.2a8.76,8.76,0,0,0,1.68-.18A5,5,0,0,0,79.68,121.72Zm0,.88V124h-.22v-.32a1,1,0,0,0-.27-.71,1,1,0,0,0-.73-.31v0Z"/><path class="cls-1" d="M85.06,123.34H85a1,1,0,0,0-.41-.77,1.5,1.5,0,0,0-1-.31h-.28v-.2h1.7Zm0,9.44v1.28h-1.7v-.2h.28a1.4,1.4,0,0,0,1-.32,1,1,0,0,0,.41-.76Zm1.2-10.72v12H85v-12Zm-.06,1.28v-1.28h1.7l0,.2h-.26a1.52,1.52,0,0,0-1,.31,1,1,0,0,0-.41.77Zm0,9.44h.06a1,1,0,0,0,.41.76,1.42,1.42,0,0,0,1,.32h.26l0,.2H86.2Z"/><path class="cls-1" d="M93.52,132.72v1.34H91.44v-.2h.3a1.44,1.44,0,0,0,.91-.3,1.17,1.17,0,0,0,.45-.84Zm1.14-10.94h.2l.4,1.18L94,134.06h-1.1ZM94.12,133a1,1,0,0,0,.14.57.68.68,0,0,0,.6.29h.28v.18H94v-1Zm.74-11.24,5.44,10.46-.46,2.1L94.48,124Zm10.38,0,.18,1.3-4.68,9.22c-.2.46-.35.84-.46,1.15s-.18.61-.24.89h-.2l-.28-1.26Zm.18,0,1.8,12.28H105.7L104.4,124l.84-2.22Zm.14,11.24h.14v1h-1.16v-.18h.3a.65.65,0,0,0,.61-.3A.86.86,0,0,0,105.56,133Zm1.06-.3h.4a1.2,1.2,0,0,0,.48.84,1.48,1.48,0,0,0,.9.3h.3v.2h-2.08Z"/><path class="cls-1" d="M113.72,123.32h0a1,1,0,0,0-.34-.76,1.15,1.15,0,0,0-.82-.3h-.28v-.2H114Zm0,9.46.26,1.28h-1.74v-.2h.28a1.08,1.08,0,0,0,.82-.32,1.05,1.05,0,0,0,.34-.76ZM115,122.06v12h-1.28v-12Zm5.36,0v.62h-5.4v-.62Zm-.92,5.7v.6h-4.48v-.6Zm.94,5.68,0,.62h-5.38v-.62Zm1.12-2.24-1.1,2.86h-3l.68-.62a3.65,3.65,0,0,0,1.61-.29,2.53,2.53,0,0,0,1-.8,5.57,5.57,0,0,0,.66-1.15Zm-1.14-9.46v.52l-2.28-.2a7.75,7.75,0,0,0,1.32-.11A4.78,4.78,0,0,0,120.32,121.74Zm-.92,4.92v1.14h-1v0a.73.73,0,0,0,.62-.25.92.92,0,0,0,.2-.59v-.26Zm0,1.66v1.14h-.22v-.26a1,1,0,0,0-.2-.59.76.76,0,0,0-.62-.25v0Zm.92-5.7V124h-.22v-.3a1,1,0,0,0-.27-.72.93.93,0,0,0-.73-.3v-.06Z"/><path class="cls-1" d="M126.7,123.36h0a1.1,1.1,0,0,0-.35-.79,1.17,1.17,0,0,0-.81-.31h-.24v-.2h1.44Zm0,9.4v1.3h-1.44v-.2h.26a1.06,1.06,0,0,0,.8-.33,1.14,1.14,0,0,0,.34-.77Zm1.26-10.7v12h-1.3v-12Zm4,0a7.57,7.57,0,0,1,3.42.72,5.17,5.17,0,0,1,2.22,2.07,6.31,6.31,0,0,1,.78,3.21,6.24,6.24,0,0,1-.78,3.2,5.17,5.17,0,0,1-2.22,2.07,7.44,7.44,0,0,1-3.42.73h-4.26l0-.6h4.3a4.7,4.7,0,0,0,3.65-1.45,6.53,6.53,0,0,0,0-7.9,4.73,4.73,0,0,0-3.65-1.45h-4.5v-.6Z"/><path class="cls-1" d="M144.16,123.34h-.06a1,1,0,0,0-.41-.77,1.52,1.52,0,0,0-.95-.31h-.28v-.2h1.7Zm0,9.44v1.28h-1.7v-.2h.28a1.42,1.42,0,0,0,.95-.32,1,1,0,0,0,.41-.76Zm1.2-10.72v12H144.1v-12Zm-.06,1.28v-1.28H147l0,.2h-.26a1.52,1.52,0,0,0-.95.31,1,1,0,0,0-.41.77Zm0,9.44h.06a1,1,0,0,0,.41.76,1.42,1.42,0,0,0,.95.32H147l0,.2h-1.7Z"/><path class="cls-1" d="M153.24,132.6a.88.88,0,0,0,.06.93.83.83,0,0,0,.64.33h.16v.2h-3.82v-.2h.16a1.5,1.5,0,0,0,.86-.29,2.23,2.23,0,0,0,.76-1Zm3.86-10.82.14,1.38L152.66,134H151.4l4.74-10.16c.15-.32.27-.59.37-.83s.19-.46.27-.69a2.15,2.15,0,0,0,.14-.54Zm2.36,7.62v.6h-5.3v-.6Zm-2.36-7.62,5.5,12.16H161l-4.26-10.38Zm3.38,10.82H162a2.13,2.13,0,0,0,.74,1,1.47,1.47,0,0,0,.84.29h.16v.2h-4.1v-.2h.16a.81.81,0,0,0,.62-.33A.88.88,0,0,0,160.48,132.6Z"/><path class="cls-1" d="M176,121.52H176a1.28,1.28,0,0,0-.39-.89,1.22,1.22,0,0,0-.89-.37h-.26v-.2H176Zm0,11.08v1.46h-1.6v-.2h.26a1.19,1.19,0,0,0,.89-.37,1.24,1.24,0,0,0,.39-.89Zm1.24-12.54v14H176v-14Zm-.06,1.46v-1.46h1.6v.2h-.26a1.24,1.24,0,0,0-.89.37,1.32,1.32,0,0,0-.39.89Zm0,11.08h.06a1.28,1.28,0,0,0,.39.89,1.2,1.2,0,0,0,.89.37h.26v.2h-1.6Z"/><path class="cls-1" d="M184.5,132.82v1.24H183v-.2h.34a1.09,1.09,0,0,0,.78-.3,1,1,0,0,0,.32-.74Zm0-11.06.86,1.12,0,11.18h-.9v-9.8a21.32,21.32,0,0,0-.18-2.5Zm0,0,11.08,10.44.2,2.14-11.08-10.5Zm.88,11.06a1,1,0,0,0,.33.74,1.11,1.11,0,0,0,.77.3h.34v.2h-1.5v-1.24Zm9.52-9.52a1,1,0,0,0-.34-.74,1.09,1.09,0,0,0-.78-.3h-.34v-.2h1.5v1.24Zm.88-1.24v9.72c0,.43,0,.84,0,1.23s.07.84.14,1.33h-.18l-.88-1.06V122.06Zm-.06,1.24v-1.24h1.5v.2h-.34a1.11,1.11,0,0,0-.77.3,1,1,0,0,0-.33.74Z"/><path class="cls-1" d="M200.48,121.72a4.66,4.66,0,0,0,.55.14,6,6,0,0,0,.83.13,6.58,6.58,0,0,0,.86.05l-2.24.2Zm11,.32v.6h-11V122Zm-9.76.56v0a1,1,0,0,0-.73.31,1,1,0,0,0-.27.71V124h-.22V122.6Zm3.66,10.18v1.28H203.9v-.2h.24a1.13,1.13,0,0,0,.82-.32,1,1,0,0,0,.36-.76Zm1.26-10.66v11.94h-1.3V122.12Zm-.06,10.66h.06a1,1,0,0,0,.36.76,1.13,1.13,0,0,0,.82.32H208v.2h-1.46Zm4.9-11.06v.52l-2.24-.2a8.76,8.76,0,0,0,1.68-.18A5,5,0,0,0,211.46,121.72Zm0,.88V124h-.22v-.32A1,1,0,0,0,211,123a1,1,0,0,0-.73-.31v0Z"/><path class="cls-1" d="M216.62,123.32h0a1.08,1.08,0,0,0-.34-.76,1.15,1.15,0,0,0-.82-.3h-.28v-.2h1.74Zm0,9.46.26,1.28h-1.74v-.2h.28a1.13,1.13,0,0,0,1.16-1.08Zm1.24-10.72v12h-1.28v-12Zm5.36,0v.62h-5.4v-.62Zm-.92,5.7v.6h-4.48v-.6Zm.94,5.68,0,.62h-5.38v-.62Zm1.12-2.24-1.1,2.86h-3l.68-.62a3.68,3.68,0,0,0,1.61-.29,2.53,2.53,0,0,0,1-.8,6.07,6.07,0,0,0,.66-1.15Zm-1.14-9.46v.52l-2.28-.2a7.83,7.83,0,0,0,1.32-.11A4.78,4.78,0,0,0,223.22,121.74Zm-.92,4.92v1.14h-1v0a.73.73,0,0,0,.62-.25.92.92,0,0,0,.2-.59v-.26Zm0,1.66v1.14h-.22v-.26a1,1,0,0,0-.2-.59.76.76,0,0,0-.62-.25v0Zm.92-5.7V124H223v-.3a1,1,0,0,0-.27-.72.93.93,0,0,0-.73-.3v-.06Z"/><path class="cls-1" d="M229.64,123.34h0a1.06,1.06,0,0,0-.36-.77,1.24,1.24,0,0,0-.84-.31h-.24v-.2h1.48Zm0,9.44.26,1.28h-1.74v-.2h.28a1.13,1.13,0,0,0,1.16-1.08Zm1.24-10.72v12H229.6v-12Zm-.06,1.28v-1.28h1.48v.2h-.24a1.24,1.24,0,0,0-.83.31,1,1,0,0,0-.35.77Zm5.44,10.1,0,.62h-5.38v-.62Zm1.12-2.24-1.1,2.86h-3l.68-.62a3.68,3.68,0,0,0,1.61-.29,2.53,2.53,0,0,0,1-.8,6.07,6.07,0,0,0,.66-1.15Z"/><path class="cls-1" d="M242.18,123.34h0a1.06,1.06,0,0,0-.36-.77,1.24,1.24,0,0,0-.84-.31h-.24v-.2h1.48Zm0,9.44.26,1.28H240.7v-.2H241a1.13,1.13,0,0,0,1.16-1.08Zm1.24-10.72v12h-1.28v-12Zm-.06,1.28v-1.28h1.48v.2h-.24a1.24,1.24,0,0,0-.83.31,1,1,0,0,0-.35.77Zm5.44,10.1,0,.62h-5.38v-.62Zm1.12-2.24-1.1,2.86h-3l.68-.62a3.68,3.68,0,0,0,1.61-.29,2.53,2.53,0,0,0,1-.8,6.07,6.07,0,0,0,.66-1.15Z"/><path class="cls-1" d="M254.94,123.34h-.06a1,1,0,0,0-.41-.77,1.52,1.52,0,0,0-.95-.31h-.28v-.2h1.7Zm0,9.44v1.28h-1.7v-.2h.28a1.42,1.42,0,0,0,.95-.32,1,1,0,0,0,.41-.76Zm1.2-10.72v12h-1.26v-12Zm-.06,1.28v-1.28h1.7l0,.2h-.26a1.52,1.52,0,0,0-.95.31,1,1,0,0,0-.41.77Zm0,9.44h.06a1,1,0,0,0,.41.76,1.42,1.42,0,0,0,.95.32h.26l0,.2h-1.7Z"/><path class="cls-1" d="M268.42,121.78a11.81,11.81,0,0,1,1.73.13,8.48,8.48,0,0,1,1.54.4,7.2,7.2,0,0,1,1.39.69l.44,2.82h-.18a4.79,4.79,0,0,0-.91-1.94,3.83,3.83,0,0,0-1.63-1.13,7.12,7.12,0,0,0-2.4-.37,5.11,5.11,0,0,0-2.67.69,4.72,4.72,0,0,0-1.79,2,7.47,7.47,0,0,0,0,6.05,4.65,4.65,0,0,0,1.8,2,5.14,5.14,0,0,0,2.68.69,6.94,6.94,0,0,0,1.6-.18,5.74,5.74,0,0,0,1.47-.57,6.21,6.21,0,0,0,1.33-1l0-2.66a.66.66,0,0,0-.23-.58,1.11,1.11,0,0,0-.69-.2h-.28v-.2h3.66v.2H275c-.6,0-.9.27-.9.8v2.4a6.93,6.93,0,0,1-1.26,1.18,7,7,0,0,1-1.91,1,7.34,7.34,0,0,1-2.53.4,7.5,7.5,0,0,1-3.45-.78,5.49,5.49,0,0,1-2.29-2.16,6.44,6.44,0,0,1-.82-3.34,6.54,6.54,0,0,1,.82-3.36,5.58,5.58,0,0,1,2.3-2.16A7.51,7.51,0,0,1,268.42,121.78Z"/><path class="cls-1" d="M280.28,123.32h0a1.08,1.08,0,0,0-.34-.76,1.15,1.15,0,0,0-.82-.3h-.28v-.2h1.74Zm0,9.46.26,1.28H278.8v-.2h.28a1.13,1.13,0,0,0,1.16-1.08Zm1.24-10.72v12h-1.28v-12Zm5.36,0v.62h-5.4v-.62Zm-.92,5.7v.6h-4.48v-.6Zm.94,5.68,0,.62h-5.38v-.62ZM288,131.2l-1.1,2.86h-3l.68-.62a3.68,3.68,0,0,0,1.61-.29,2.53,2.53,0,0,0,1-.8,6.07,6.07,0,0,0,.66-1.15Zm-1.14-9.46v.52l-2.28-.2a7.83,7.83,0,0,0,1.32-.11A4.78,4.78,0,0,0,286.88,121.74Zm-.92,4.92v1.14h-1v0a.73.73,0,0,0,.62-.25.92.92,0,0,0,.2-.59v-.26Zm0,1.66v1.14h-.22v-.26a1,1,0,0,0-.2-.59.76.76,0,0,0-.62-.25v0Zm.92-5.7V124h-.22v-.3a1,1,0,0,0-.27-.72.93.93,0,0,0-.73-.3v-.06Z"/><path class="cls-1" d="M293.12,132.82v1.24h-1.5v-.2H292a1.09,1.09,0,0,0,.78-.3,1,1,0,0,0,.32-.74Zm0-11.06.86,1.12,0,11.18h-.9v-9.8a21.32,21.32,0,0,0-.18-2.5Zm0,0,11.08,10.44.2,2.14-11.08-10.5Zm.88,11.06a1,1,0,0,0,.33.74,1.11,1.11,0,0,0,.77.3h.34v.2h-1.5v-1.24Zm9.52-9.52a1,1,0,0,0-.34-.74,1.09,1.09,0,0,0-.78-.3H302v-.2h1.5v1.24Zm.88-1.24v9.72c0,.43,0,.84,0,1.23s.07.84.14,1.33h-.18l-.88-1.06V122.06Zm-.06,1.24v-1.24h1.5v.2h-.34a1.11,1.11,0,0,0-.77.3,1,1,0,0,0-.33.74Z"/><path class="cls-1" d="M309.1,121.72a4.66,4.66,0,0,0,.55.14,6,6,0,0,0,.83.13,6.58,6.58,0,0,0,.86.05l-2.24.2Zm11,.32v.6h-11V122Zm-9.76.56v0a1,1,0,0,0-.73.31,1,1,0,0,0-.27.71V124h-.22V122.6ZM314,132.78v1.28h-1.46v-.2h.24a1.13,1.13,0,0,0,.82-.32,1,1,0,0,0,.36-.76Zm1.26-10.66v11.94h-1.3V122.12Zm-.06,10.66h.06a1,1,0,0,0,.36.76,1.13,1.13,0,0,0,.82.32h.22v.2h-1.46Zm4.9-11.06v.52l-2.24-.2a8.76,8.76,0,0,0,1.68-.18A5,5,0,0,0,320.08,121.72Zm0,.88V124h-.22v-.32a1,1,0,0,0-.27-.71,1,1,0,0,0-.73-.31v0Z"/><path class="cls-1" d="M330.36,119.68a2.87,2.87,0,0,0,.61.16c.27.06.58.1.91.14a7.72,7.72,0,0,0,.92.06l-2.44.22Zm11.58.36v.6H330.36V120Zm-10.2.54v.06a1.29,1.29,0,0,0-.84.36,1.14,1.14,0,0,0-.34.84v.34l-.2,0v-1.62Zm3.82,12v1.46H334v-.2h.26a1.2,1.2,0,0,0,.89-.37,1.24,1.24,0,0,0,.39-.89Zm1.24-12.48v13.94h-1.3V120.12Zm-.06,12.48h.06a1.24,1.24,0,0,0,.39.89,1.2,1.2,0,0,0,.89.37h.26v.2h-1.6Zm5.2-12.92v.58L339.5,120a7.75,7.75,0,0,0,.93-.06c.33,0,.63-.08.91-.14A2.45,2.45,0,0,0,341.94,119.68Zm0,.9v1.62l-.2,0v-.34a1.15,1.15,0,0,0-.35-.84,1.29,1.29,0,0,0-.83-.36v-.06Z"/><path class="cls-1" d="M347.2,123.32h0a1.08,1.08,0,0,0-.34-.76,1.15,1.15,0,0,0-.82-.3h-.28v-.2h1.74Zm0,9.46.26,1.28h-1.74v-.2H346a1.13,1.13,0,0,0,1.16-1.08Zm1.24-10.72v12h-1.28v-12Zm5.36,0v.62h-5.4v-.62Zm-.92,5.7v.6H348.4v-.6Zm.94,5.68,0,.62H348.4v-.62Zm1.12-2.24-1.1,2.86h-3l.68-.62a3.68,3.68,0,0,0,1.61-.29,2.53,2.53,0,0,0,1-.8,6.07,6.07,0,0,0,.66-1.15Zm-1.14-9.46v.52l-2.28-.2a7.83,7.83,0,0,0,1.32-.11A4.78,4.78,0,0,0,353.8,121.74Zm-.92,4.92v1.14h-1v0a.73.73,0,0,0,.62-.25.92.92,0,0,0,.2-.59v-.26Zm0,1.66v1.14h-.22v-.26a1,1,0,0,0-.2-.59.76.76,0,0,0-.62-.25v0Zm.92-5.7V124h-.22v-.3a1,1,0,0,0-.27-.72.93.93,0,0,0-.73-.3v-.06Z"/><path class="cls-1" d="M371.16,129l-.22,2.74a4.83,4.83,0,0,1-1.36,1.38,6.27,6.27,0,0,1-1.9.89,7.82,7.82,0,0,1-2.24.31,7.7,7.7,0,0,1-3.51-.78,5.32,5.32,0,0,1-2.29-2.16,6.63,6.63,0,0,1-.8-3.34,6.74,6.74,0,0,1,.8-3.36,5.43,5.43,0,0,1,2.29-2.16,7.7,7.7,0,0,1,3.51-.76,10.27,10.27,0,0,1,2.5.32,7.89,7.89,0,0,1,2.18.9l.44,2.82h-.18a4,4,0,0,0-1.77-2.64,6.12,6.12,0,0,0-3.19-.8,5.22,5.22,0,0,0-2.73.69,4.64,4.64,0,0,0-1.78,2,6.77,6.77,0,0,0-.63,3,6.62,6.62,0,0,0,.63,3,4.6,4.6,0,0,0,1.79,2,5.37,5.37,0,0,0,2.74.71,7.11,7.11,0,0,0,2.71-.49,4.37,4.37,0,0,0,2-1.53A4.93,4.93,0,0,0,371,129Z"/><path class="cls-1" d="M376.8,123.34h-.06a1.09,1.09,0,0,0-.35-.77,1.17,1.17,0,0,0-.81-.31h-.24v-.2h1.46Zm0,9.44v1.28h-1.46v-.2h.24a1.09,1.09,0,0,0,.81-.32,1.06,1.06,0,0,0,.35-.76ZM378,122.06v12h-1.28v-12Zm7.58,5.78v.6h-7.8v-.6Zm-7.64-4.5v-1.28h1.46v.2h-.24a1.21,1.21,0,0,0-.82.31,1,1,0,0,0-.34.77Zm0,9.44H378a1,1,0,0,0,.34.76,1.13,1.13,0,0,0,.82.32h.24v.2H378Zm7.5-9.44h-.06a1.09,1.09,0,0,0-.35-.77,1.17,1.17,0,0,0-.81-.31H384v-.2h1.46Zm0,9.44v1.28H384v-.2h.24a1.09,1.09,0,0,0,.81-.32,1.06,1.06,0,0,0,.35-.76Zm1.22-10.72v12H385.4v-12Zm-.06,1.28v-1.28h1.46v.2h-.24a1.17,1.17,0,0,0-.81.31,1.09,1.09,0,0,0-.35.77Zm0,9.44h.06a1.06,1.06,0,0,0,.35.76,1.09,1.09,0,0,0,.81.32h.24v.2h-1.46Z"/><path class="cls-1" d="M393.66,132.82v1.24h-1.5v-.2h.34a1.09,1.09,0,0,0,.78-.3,1,1,0,0,0,.32-.74Zm0-11.06.86,1.12,0,11.18h-.9v-9.8a21.32,21.32,0,0,0-.18-2.5Zm0,0L404.7,132.2l.2,2.14-11.08-10.5Zm.88,11.06a1,1,0,0,0,.33.74,1.11,1.11,0,0,0,.77.3h.34v.2h-1.5v-1.24ZM404,123.3a1,1,0,0,0-.34-.74,1.09,1.09,0,0,0-.78-.3h-.34v-.2h1.5v1.24Zm.88-1.24v9.72c0,.43,0,.84,0,1.23s.07.84.14,1.33h-.18l-.88-1.06V122.06Zm-.06,1.24v-1.24h1.5v.2H406a1.11,1.11,0,0,0-.77.3,1,1,0,0,0-.33.74Z"/><path class="cls-1" d="M417,121.78a7.61,7.61,0,0,1,2.63.45,6.54,6.54,0,0,1,2.16,1.29,6.31,6.31,0,0,1,1.45,7.09,6,6,0,0,1-1.45,2,6.54,6.54,0,0,1-2.16,1.29,7.61,7.61,0,0,1-2.63.45,7.51,7.51,0,0,1-2.62-.45,6.59,6.59,0,0,1-2.15-1.29,6,6,0,0,1-2-4.54,6,6,0,0,1,2-4.54,6.59,6.59,0,0,1,2.15-1.29A7.51,7.51,0,0,1,417,121.78Zm0,12a5.1,5.1,0,0,0,2.68-.72,5.16,5.16,0,0,0,1.9-2,6.63,6.63,0,0,0,0-5.93,5.27,5.27,0,0,0-1.9-2,5.31,5.31,0,0,0-5.34,0,5.27,5.27,0,0,0-1.9,2,6.63,6.63,0,0,0,0,5.93,5.16,5.16,0,0,0,1.9,2A5.08,5.08,0,0,0,417,133.74Z"/><path class="cls-1" d="M429.3,123.34h0a1.06,1.06,0,0,0-.36-.77,1.24,1.24,0,0,0-.84-.31h-.24v-.2h1.48Zm0,9.44.26,1.28h-1.74v-.2h.28a1.13,1.13,0,0,0,1.16-1.08Zm1.24-10.72v12h-1.28v-12Zm-.06,1.28v-1.28H432v.2h-.24a1.24,1.24,0,0,0-.83.31,1,1,0,0,0-.35.77Zm5.44,10.1,0,.62H430.5v-.62ZM437,131.2l-1.1,2.86h-3l.68-.62a3.68,3.68,0,0,0,1.61-.29,2.53,2.53,0,0,0,1-.8,6.07,6.07,0,0,0,.66-1.15Z"/><path class="cls-1" d="M447.38,121.78a7.61,7.61,0,0,1,2.63.45,6.54,6.54,0,0,1,2.16,1.29,6.31,6.31,0,0,1,1.45,7.09,6,6,0,0,1-1.45,2,6.54,6.54,0,0,1-2.16,1.29,7.61,7.61,0,0,1-2.63.45,7.51,7.51,0,0,1-2.62-.45,6.59,6.59,0,0,1-2.15-1.29,6,6,0,0,1-2-4.54,6,6,0,0,1,2-4.54,6.59,6.59,0,0,1,2.15-1.29A7.51,7.51,0,0,1,447.38,121.78Zm0,12a5.1,5.1,0,0,0,2.68-.72,5.16,5.16,0,0,0,1.9-2,6.63,6.63,0,0,0,0-5.93,5.27,5.27,0,0,0-1.9-2,5.31,5.31,0,0,0-5.34,0,5.27,5.27,0,0,0-1.9,2,6.63,6.63,0,0,0,0,5.93,5.16,5.16,0,0,0,1.9,2A5.08,5.08,0,0,0,447.38,133.74Z"/><path class="cls-1" d="M465,121.78a11.81,11.81,0,0,1,1.73.13,8.48,8.48,0,0,1,1.54.4,7.2,7.2,0,0,1,1.39.69l.44,2.82h-.18a4.79,4.79,0,0,0-.91-1.94,3.83,3.83,0,0,0-1.63-1.13,7.12,7.12,0,0,0-2.4-.37,5.11,5.11,0,0,0-2.67.69,4.72,4.72,0,0,0-1.79,2,7.47,7.47,0,0,0,0,6.05,4.65,4.65,0,0,0,1.8,2,5.14,5.14,0,0,0,2.68.69,6.94,6.94,0,0,0,1.6-.18,5.74,5.74,0,0,0,1.47-.57,6.21,6.21,0,0,0,1.33-1l0-2.66a.66.66,0,0,0-.23-.58,1.11,1.11,0,0,0-.69-.2h-.28v-.2h3.66v.2h-.28c-.6,0-.9.27-.9.8v2.4a6.93,6.93,0,0,1-1.26,1.18,7,7,0,0,1-1.91,1,7.34,7.34,0,0,1-2.53.4,7.5,7.5,0,0,1-3.45-.78,5.49,5.49,0,0,1-2.29-2.16,6.44,6.44,0,0,1-.82-3.34,6.54,6.54,0,0,1,.82-3.36,5.58,5.58,0,0,1,2.3-2.16A7.51,7.51,0,0,1,465,121.78Z"/><path class="cls-1" d="M478.24,123.32l-1.7-.06a2.5,2.5,0,0,0-.79-.73,2.05,2.05,0,0,0-1.05-.27h-.24v-.2h4.64v.2h-.24a.67.67,0,0,0-.63.35A.7.7,0,0,0,478.24,123.32Zm-.7-1.24,3.7,6.58-.82.7-4.62-7.28Zm2.76,10.7v1.28h-1.46v-.2h.24a1.09,1.09,0,0,0,.81-.32,1.06,1.06,0,0,0,.35-.76Zm1.24-3.88v5.16h-1.3V128.9Zm3.36-6.82h1.26l-4.76,7.24-.74-.22Zm-3.42,10.7h.06a1.06,1.06,0,0,0,.35.76,1.09,1.09,0,0,0,.81.32h.24v.2h-1.46Zm2.66-9.44a.7.7,0,0,0-.62-1.08h-.24v-.2h4.18v.2h-.24a2,2,0,0,0-1.05.31,2.8,2.8,0,0,0-.77.71Z"/><path class="cls-2" d="M164.53,76.24l-2,2.06,7.65,20.51,30.93-31L191,40.87,170.14,61.81l1.57,4.79-4.57,4.58-1.72-4.63-3.28,3.29ZM173,72.46l4,10.69-7.14,7.14-4-10.65Z"/><polygon class="cls-2" points="157.39 80.06 154.1 71.24 159.24 66.09 162.53 74.91 157.39 80.06"/><polygon class="cls-2" points="160.25 99.93 164.69 95.47 162.44 89.43 158 93.88 160.25 99.93"/><polygon class="cls-2" points="154.06 90.66 152.34 86.03 155.17 83.19 156.89 87.81 154.06 90.66"/><polygon class="cls-2" points="152.6 79.42 149.7 71.64 145.62 75.73 148.52 83.5 152.6 79.42"/><polygon class="cls-2" points="150 95.45 146.56 98.9 143.98 91.98 147.42 88.53 150 95.45"/><polygon class="cls-3" points="127.12 46.8 172.32 59.63 191.02 40.87 117.15 20.11 127.12 46.8"/><polygon id="Gradient" class="cls-4" points="127.12 46.8 172.32 59.63 191.02 40.87 117.15 20.11 127.12 46.8"/><path class="cls-2" d="M56.17,38.63l1.9-1.91L51,17.65,22.2,46.49l9.34,25L51,52.05,49.5,47.6l4.24-4.26,1.6,4.3,3-3.06Zm-7.84,3.52-3.74-9.94,6.64-6.64L55,35.48Z"/><polygon class="cls-2" points="62.81 35.08 65.87 43.28 61.09 48.07 58.03 39.87 62.81 35.08"/><polygon class="cls-2" points="60.14 16.61 56.02 20.75 58.12 26.37 62.24 22.23 60.14 16.61"/><polygon class="cls-2" points="65.9 25.23 67.51 29.53 64.88 32.17 63.27 27.87 65.9 25.23"/><polygon class="cls-2" points="67.26 35.68 69.96 42.91 73.75 39.11 71.05 31.88 67.26 35.68"/><polygon class="cls-2" points="69.68 20.77 72.88 17.57 75.28 24 72.08 27.2 69.68 20.77"/><polygon class="cls-3" points="90.95 66 48.93 54.07 31.54 71.51 100.22 90.82 90.95 66"/><polygon id="Gradient-2" data-name="Gradient" class="cls-5" points="90.95 66 48.93 54.07 31.54 71.51 100.22 90.82 90.95 66"/></g></svg>