<svg xmlns="http://www.w3.org/2000/svg" viewBox="0 0 637.83 313.62"><defs><style>.cls-1{fill:#fff;}.cls-2{fill:#2b2b2b;}.cls-3{fill:#666;}</style></defs><g id="Vertical_White" data-name="Vertical White"><path class="cls-1" d="M220.87,180.07h-.18a3.5,3.5,0,0,0-1.12-2.62,3.68,3.68,0,0,0-2.66-1.1h-.71l-.06-.59h4.73Zm0,32.75v4.31h-4.73l.06-.59h.71a3.67,3.67,0,0,0,2.66-1.09,3.54,3.54,0,0,0,1.12-2.63Zm3.67-37.06v41.37h-3.85V175.76Zm3.36,0a17.59,17.59,0,0,1,7,1.24,9.63,9.63,0,0,1,4.34,3.46,9.07,9.07,0,0,1,1.48,5.17,9.47,9.47,0,0,1-.95,4.34,8.81,8.81,0,0,1-2.42,3,9,9,0,0,1-3.13,1.62,12.65,12.65,0,0,1,5.41,2.07,10.82,10.82,0,0,1,3.48,4,11.67,11.67,0,0,1,1.22,5.35,10.63,10.63,0,0,1-1.6,5.82,10.38,10.38,0,0,1-4.7,3.9,18.16,18.16,0,0,1-7.48,1.39H224q.06-1.06.06-2.13h6.27a11.26,11.26,0,0,0,5.2-1.09,7.43,7.43,0,0,0,3.25-3.22,10.73,10.73,0,0,0,1.12-5.08,10.13,10.13,0,0,0-1.27-5.38,8.41,8.41,0,0,0-3.28-3.13,14,14,0,0,0-4.34-1.45,27.21,27.21,0,0,0-4.47-.39v-.53a17.93,17.93,0,0,0,3-.29,9.67,9.67,0,0,0,3.19-1.19,6.85,6.85,0,0,0,2.54-2.63,9.09,9.09,0,0,0,1-4.58,9.83,9.83,0,0,0-1-4.55,6.45,6.45,0,0,0-2.89-2.86,10.48,10.48,0,0,0-4.76-1h-5.44a3.63,3.63,0,0,0-.15-.5c-.1-.3-.24-.76-.44-1.39Z"/><path class="cls-1" d="M262.24,175.76v3.55h-.18a2.73,2.73,0,0,0-.91-2.13,3.2,3.2,0,0,0-2.22-.83H258v-.59Zm3.67,0v26a17.17,17.17,0,0,0,1.56,7.51,11.74,11.74,0,0,0,11,6.86,13.49,13.49,0,0,0,6.92-1.72,12,12,0,0,0,4.61-4.76,14.68,14.68,0,0,0,1.65-7.12V175.76h2.78v26.77a16,16,0,0,1-2,8.07,13.91,13.91,0,0,1-5.58,5.41,17.4,17.4,0,0,1-8.4,2,18.35,18.35,0,0,1-8.59-1.92,14,14,0,0,1-5.74-5.38,15.61,15.61,0,0,1-2-8.07V175.76Zm4.07,0v.59H269a3.2,3.2,0,0,0-2.22.83,2.73,2.73,0,0,0-.91,2.13h-.12v-3.55Zm21.81,0v3.55h-.18a2.73,2.73,0,0,0-.91-2.13,3.2,3.2,0,0,0-2.22-.83h-.94v-.59Zm6.68,0v.59h-1a3.19,3.19,0,0,0-2.21.83,2.74,2.74,0,0,0-.92,2.13h-.12v-3.55Z"/><path class="cls-1" d="M315.49,212.82v4.31h-6.56v-.59h.95a4.45,4.45,0,0,0,2.83-1,4,4,0,0,0,1.48-2.74Zm3.13-37.89h.59l1.19,3.49-3.49,38.71h-3.19Zm-1.41,38.83v.3a2.63,2.63,0,0,0,.67,1.74,2.1,2.1,0,0,0,1.63.8h.89v.53h-3.61v-3.37Zm2-38.83,17,36.82L334.88,218l-16.79-36.41Zm32.63,0,.47,4-14.83,33c-.59,1.34-1.05,2.47-1.36,3.4a14.19,14.19,0,0,0-.65,2.63h-.59l-.83-3.72Zm.71,38.83H353v3.37h-3.6v-.53h.88a2.07,2.07,0,0,0,1.66-.8,2.71,2.71,0,0,0,.65-1.74v-.3Zm-.18-38.83,5.08,42.2h-4.61l-3.25-35.81,2.25-6.39Zm3.31,37.89h1.24a4.22,4.22,0,0,0,1.54,2.74,4.39,4.39,0,0,0,2.78,1h.94v.59h-6.5Z"/><path class="cls-1" d="M379.14,180.07H379a3.77,3.77,0,0,0-1.15-2.62,3.58,3.58,0,0,0-2.63-1.1h-.77v-.59h4.73Zm0,32.75v4.31h-4.73v-.59h.77a3.57,3.57,0,0,0,2.63-1.09,3.81,3.81,0,0,0,1.15-2.63Zm3.67-37.06v41.37H379V175.76Zm-.18,4.31v-4.31h4.73v.59h-.77a3.58,3.58,0,0,0-2.63,1.1,3.77,3.77,0,0,0-1.15,2.62Zm0,32.75h.18a3.81,3.81,0,0,0,1.15,2.63,3.57,3.57,0,0,0,2.63,1.09h.77v.59h-4.73Z"/><path class="cls-1" d="M399.83,174.64a10.6,10.6,0,0,0,1.8.47c.81.16,1.7.3,2.69.41a22.53,22.53,0,0,0,2.72.18l-7.21.65Zm34.22,1.06v1.77H399.83V175.7Zm-30.14,1.6v.17a3.6,3.6,0,0,0-2.49,1.07,3.37,3.37,0,0,0-1,2.48v1l-.59.05V177.3Zm11.28,35.52v4.31h-4.72v-.59h.76a3.57,3.57,0,0,0,2.63-1.09,3.82,3.82,0,0,0,1.16-2.63Zm3.67-36.88v41.19H415V175.94Zm-.18,36.88h.18a3.81,3.81,0,0,0,1.15,2.63,3.59,3.59,0,0,0,2.63,1.09h.77v.59h-4.73Zm15.37-38.18v1.71l-7.21-.65a22.49,22.49,0,0,0,2.75-.18c1-.11,1.86-.25,2.68-.41A9.12,9.12,0,0,0,434.05,174.64Zm0,2.66v4.78l-.59-.05v-1a3.33,3.33,0,0,0-1-2.48,3.64,3.64,0,0,0-2.45-1.07v-.17Z"/><path class="cls-1" d="M171,248H171a1.42,1.42,0,0,0-.46-1.05,1.44,1.44,0,0,0-1.06-.44h-.29l0-.24H171Zm0,13.16v1.73h-1.9l0-.24h.29a1.44,1.44,0,0,0,1.06-.44,1.42,1.42,0,0,0,.46-1.05Zm1.47-14.89v16.62H171V246.26Zm1.35,0a7.15,7.15,0,0,1,2.82.5,3.87,3.87,0,0,1,1.74,1.39,3.59,3.59,0,0,1,.59,2.07,3.73,3.73,0,0,1-.38,1.75,3.44,3.44,0,0,1-1,1.21,3.53,3.53,0,0,1-1.26.65,5.11,5.11,0,0,1,2.17.83,4.44,4.44,0,0,1,1.41,1.61,4.72,4.72,0,0,1,.48,2.15,4.22,4.22,0,0,1-.64,2.33,4.16,4.16,0,0,1-1.89,1.57,7.34,7.34,0,0,1-3,.56h-2.63c0-.29,0-.57,0-.85h2.52a4.61,4.61,0,0,0,2.09-.44,3.08,3.08,0,0,0,1.3-1.3,4.33,4.33,0,0,0,.45-2,4.06,4.06,0,0,0-.51-2.16,3.39,3.39,0,0,0-1.32-1.26,5.76,5.76,0,0,0-1.74-.58,11.43,11.43,0,0,0-1.79-.16v-.21a7,7,0,0,0,1.21-.12,4.13,4.13,0,0,0,1.28-.47,2.82,2.82,0,0,0,1-1.06,3.66,3.66,0,0,0,.4-1.84,4,4,0,0,0-.39-1.83,2.63,2.63,0,0,0-1.16-1.15,4.22,4.22,0,0,0-1.91-.39h-2.19a1.29,1.29,0,0,0-.06-.2c0-.12-.1-.31-.17-.56Z"/><path class="cls-1" d="M187.36,261.15a1.07,1.07,0,0,0,.07,1.1,1,1,0,0,0,.76.39h.19v.24h-4.53v-.24H184a1.85,1.85,0,0,0,1-.34,2.72,2.72,0,0,0,.9-1.15Zm4.58-12.85.17,1.64-5.44,12.87h-1.49l5.62-12.06c.18-.38.33-.71.44-1s.23-.55.32-.82a2.93,2.93,0,0,0,.17-.64Zm2.81,9.05v.71h-6.3v-.71Zm-2.81-9.05,6.53,14.44H196.6l-5.06-12.33Zm4,12.85h1.8a2.62,2.62,0,0,0,.88,1.15,1.82,1.82,0,0,0,1,.34h.19v.24H195v-.24h.19a1,1,0,0,0,.74-.39A1.07,1.07,0,0,0,196,261.15Z"/><path class="cls-1" d="M205,261.41v1.47h-1.78v-.24h.4a1.36,1.36,0,0,0,.93-.35,1.17,1.17,0,0,0,.38-.88ZM205,248.28l1,1.33,0,13.27H205V251.24a26,26,0,0,0-.22-3Zm0,0,13.15,12.39.24,2.54-13.15-12.46Zm1,13.13a1.12,1.12,0,0,0,.4.88,1.33,1.33,0,0,0,.91.35h.4v.24H206v-1.47Zm11.31-11.3a1.22,1.22,0,0,0-.41-.88,1.28,1.28,0,0,0-.92-.36h-.41v-.24h1.78v1.48Zm1-1.48v11.54c0,.51,0,1,0,1.46s.08,1,.17,1.58h-.22l-1-1.26V248.63Zm-.07,1.48v-1.48h1.78v.24h-.4a1.32,1.32,0,0,0-.92.36,1.13,1.13,0,0,0-.39.88Z"/><path class="cls-1" d="M232.48,248.3a12.17,12.17,0,0,1,2.05.16,9.82,9.82,0,0,1,1.83.47,8.75,8.75,0,0,1,1.65.82l.52,3.35h-.21a5.83,5.83,0,0,0-1.08-2.31,4.58,4.58,0,0,0-1.94-1.34,8.29,8.29,0,0,0-2.85-.44,6.11,6.11,0,0,0-3.17.82,5.51,5.51,0,0,0-2.12,2.33,8.86,8.86,0,0,0,0,7.18,5.5,5.5,0,0,0,2.13,2.34,6.09,6.09,0,0,0,3.19.82,8.45,8.45,0,0,0,1.9-.21,7.14,7.14,0,0,0,1.74-.68,7.31,7.31,0,0,0,1.58-1.18l0-3.15a.76.76,0,0,0-.27-.69,1.27,1.27,0,0,0-.82-.24h-.33v-.24h4.34v.24h-.33c-.71,0-1.07.32-1.07.95v2.85a8.16,8.16,0,0,1-1.49,1.4,8.68,8.68,0,0,1-2.27,1.19,9.68,9.68,0,0,1-7.1-.45,6.67,6.67,0,0,1-2.72-2.57,8.63,8.63,0,0,1,0-8,6.64,6.64,0,0,1,2.73-2.57A8.84,8.84,0,0,1,232.48,248.3Z"/><path class="cls-1" d="M246.51,250.15h0a1.27,1.27,0,0,0-.43-.91,1.37,1.37,0,0,0-1-.37h-.29v-.24h1.74Zm0,11.21v1.52h-1.74v-.24h.29a1.33,1.33,0,0,0,1-.38,1.28,1.28,0,0,0,.43-.9ZM248,248.63v14.25h-1.52V248.63Zm-.07,1.52v-1.52h1.73v.24h-.28a1.39,1.39,0,0,0-1,.37,1.17,1.17,0,0,0-.4.91Zm0,11.21H248a1.18,1.18,0,0,0,.4.9,1.37,1.37,0,0,0,1,.38h.26v.24h-1.73Zm8.57-12.56-6.55,7h-1.12l6-7Zm-6.34,6.13,6.2,6.74a2.9,2.9,0,0,0,.85.71,2.72,2.72,0,0,0,1.21.26v.24h-.88a6.54,6.54,0,0,1-.7,0,4.76,4.76,0,0,1-.9-.16,4,4,0,0,1-1-.41,3.7,3.7,0,0,1-.92-.74c-.49-.56-.93-1-1.33-1.49l-1.27-1.38-1.27-1.37-1.35-1.49Zm7.88-6.3v.24h-.09a3.83,3.83,0,0,0-1.37.24,2.45,2.45,0,0,0-1,.71l-1.61,0a.52.52,0,0,0,.08-.63.65.65,0,0,0-.61-.3h-.21v-.24H258Z"/><path class="cls-1" d="M269.35,248.3a8.9,8.9,0,0,1,3.12.54,7.67,7.67,0,0,1,2.57,1.53,7.52,7.52,0,0,1,1.72,8.41,7.37,7.37,0,0,1-1.72,2.37,8,8,0,0,1-2.57,1.53,9.13,9.13,0,0,1-3.12.53,9,9,0,0,1-3.11-.53,7.81,7.81,0,0,1-2.55-1.53,7.52,7.52,0,0,1-1.73-8.42,7.11,7.11,0,0,1,1.73-2.36,7.48,7.48,0,0,1,2.55-1.53A8.8,8.8,0,0,1,269.35,248.3Zm0,14.2a6.15,6.15,0,0,0,3.18-.85,6.31,6.31,0,0,0,2.26-2.38,7.88,7.88,0,0,0,0-7,6.25,6.25,0,0,0-2.26-2.36,6.27,6.27,0,0,0-6.34,0,6.16,6.16,0,0,0-2.25,2.36,7.8,7.8,0,0,0,0,7,6.21,6.21,0,0,0,2.25,2.38A6.11,6.11,0,0,0,269.35,262.5Z"/><path class="cls-1" d="M283.93,250.15h-.05a1.27,1.27,0,0,0-.43-.91,1.37,1.37,0,0,0-1-.37h-.29v-.24h1.74Zm0,11.21v1.52h-1.74v-.24h.29a1.33,1.33,0,0,0,1-.38,1.28,1.28,0,0,0,.43-.9Zm1.47-12.73v14.25h-1.52V248.63Zm-.07,1.52v-1.52h1.73v.24h-.28a1.39,1.39,0,0,0-1,.37,1.17,1.17,0,0,0-.4.91Zm0,11.21h.07a1.18,1.18,0,0,0,.4.9,1.37,1.37,0,0,0,1,.38h.26v.24h-1.73Zm8.57-12.56-6.55,7h-1.12l6-7Zm-6.34,6.13,6.2,6.74a2.9,2.9,0,0,0,.85.71,2.72,2.72,0,0,0,1.21.26v.24h-.88a6.54,6.54,0,0,1-.7,0,4.76,4.76,0,0,1-.9-.16,4,4,0,0,1-1-.41,3.7,3.7,0,0,1-.92-.74c-.49-.56-.93-1-1.33-1.49l-1.27-1.38-1.27-1.37-1.35-1.49Zm7.88-6.3v.24h-.09a3.83,3.83,0,0,0-1.37.24,2.45,2.45,0,0,0-1,.71l-1.61,0a.52.52,0,0,0,.08-.63.65.65,0,0,0-.61-.3h-.21v-.24h4.84Z"/><path class="cls-1" d="M310,246.26v1.42h-.07a1.09,1.09,0,0,0-.37-.85,1.29,1.29,0,0,0-.89-.33h-.38v-.24Zm1.47,0v10.45a6.83,6.83,0,0,0,.63,3,4.81,4.81,0,0,0,1.77,2,4.76,4.76,0,0,0,2.64.73,5.4,5.4,0,0,0,2.77-.69,5,5,0,0,0,1.86-1.91,6,6,0,0,0,.66-2.86V246.26h1.12V257a6.43,6.43,0,0,1-.8,3.24,5.64,5.64,0,0,1-2.24,2.17,7,7,0,0,1-3.37.78,7.45,7.45,0,0,1-3.46-.77,5.52,5.52,0,0,1-2.3-2.16,6.24,6.24,0,0,1-.82-3.24V246.26Zm1.64,0v.24h-.38a1.29,1.29,0,0,0-.89.33,1.09,1.09,0,0,0-.37.85h-.05v-1.42Zm8.76,0v1.42h-.07a1.09,1.09,0,0,0-.37-.85,1.27,1.27,0,0,0-.89-.33h-.38v-.24Zm2.68,0v.24h-.38a1.31,1.31,0,0,0-.89.33,1.11,1.11,0,0,0-.36.85h-.05v-1.42Z"/><path class="cls-1" d="M330.65,261.41v1.47h-1.78v-.24h.41a1.32,1.32,0,0,0,.92-.35,1.14,1.14,0,0,0,.38-.88Zm0-13.13,1,1.33,0,13.27h-1.07V251.24a25.65,25.65,0,0,0-.21-3Zm0,0,13.15,12.39.24,2.54-13.16-12.46Zm1,13.13a1.15,1.15,0,0,0,.39.88,1.35,1.35,0,0,0,.92.35h.4v.24h-1.78v-1.47Zm11.3-11.3a1.21,1.21,0,0,0-.4-.88,1.29,1.29,0,0,0-.93-.36h-.4v-.24H343v1.48Zm1.05-1.48v11.54c0,.51,0,1,0,1.46s.09,1,.17,1.58H344L343,262V248.63Zm-.07,1.48v-1.48h1.78v.24h-.41a1.31,1.31,0,0,0-.91.36,1.13,1.13,0,0,0-.39.88Z"/><path class="cls-1" d="M352.57,250.15h-.07a1.2,1.2,0,0,0-.49-.91,1.73,1.73,0,0,0-1.13-.37h-.33v-.24h2Zm0,11.21v1.52h-2v-.24h.33a1.68,1.68,0,0,0,1.13-.38,1.21,1.21,0,0,0,.49-.9ZM354,248.63v14.25H352.5V248.63Zm-.07,1.52v-1.52h2l0,.24h-.31a1.75,1.75,0,0,0-1.13.37,1.2,1.2,0,0,0-.49.91Zm0,11.21H354a1.21,1.21,0,0,0,.49.9,1.7,1.7,0,0,0,1.13.38h.31l0,.24h-2Z"/><path class="cls-1" d="M363.68,250.37h-1.8a2.57,2.57,0,0,0-.88-1.15,1.84,1.84,0,0,0-1-.35h-.19v-.24h4.87v.24h-.19a1,1,0,0,0-.73.39A1.13,1.13,0,0,0,363.68,250.37Zm4,12.84-6.53-14.43H363l5.06,12.32Zm0,0-.16-1.64L373,248.7h1.5l-5.63,12.07-.44,1c-.11.28-.22.55-.32.82a2.8,2.8,0,0,0-.16.64Zm4.59-12.84a1.08,1.08,0,0,0-.07-1.11,1,1,0,0,0-.76-.39h-.17v-.24h4.51v.24h-.19a1.87,1.87,0,0,0-1,.35,2.66,2.66,0,0,0-.9,1.15Z"/><path class="cls-1" d="M381.44,250.13h-.05a1.24,1.24,0,0,0-.4-.9,1.35,1.35,0,0,0-1-.36h-.34v-.24h2.07Zm0,11.23.31,1.52h-2.07v-.24H380a1.33,1.33,0,0,0,1.37-1.28Zm1.47-12.73v14.25h-1.52V248.63Zm6.37,0v.74h-6.41v-.74Zm-1.1,6.77v.71h-5.31v-.71Zm1.12,6.74-.05.74h-6.38v-.74Zm1.33-2.66-1.3,3.4h-3.61l.8-.74a4.48,4.48,0,0,0,1.91-.34,3.09,3.09,0,0,0,1.18-.95,6.7,6.7,0,0,0,.78-1.37Zm-1.35-11.23v.62l-2.71-.24a9.86,9.86,0,0,0,1.57-.13A6,6,0,0,0,389.28,248.25Zm-1.1,5.84v1.36H387v0a.89.89,0,0,0,.74-.3,1.11,1.11,0,0,0,.23-.7v-.31Zm0,2v1.35h-.26v-.31a1.13,1.13,0,0,0-.23-.7.89.89,0,0,0-.74-.3v0Zm1.1-6.77v1.64H389v-.36a1.23,1.23,0,0,0-.32-.85,1.12,1.12,0,0,0-.87-.36v-.07Z"/><path class="cls-1" d="M396.85,250.13h-.05a1.24,1.24,0,0,0-.4-.9,1.32,1.32,0,0,0-.95-.36h-.33v-.24h2Zm0,11.23.29,1.52h-2v-.24h.33a1.26,1.26,0,0,0,.95-.38,1.29,1.29,0,0,0,.4-.9Zm1.45-12.73v14.25h-1.52V248.63Zm-.07,12.73h.07a1.29,1.29,0,0,0,.4.9,1.27,1.27,0,0,0,.95.38H400l0,.24h-2.05Zm2.85-12.73a7.23,7.23,0,0,1,2,.26,4.52,4.52,0,0,1,1.52.76,3.34,3.34,0,0,1,1,1.22,3.63,3.63,0,0,1,.34,1.61,3.73,3.73,0,0,1-.48,1.85,3.77,3.77,0,0,1-1.32,1.4,4.24,4.24,0,0,1-1.91.67,3,3,0,0,1,.94.73,9.54,9.54,0,0,1,.91,1.12c.42.55.78,1,1.11,1.44s.64.78,1,1.15.64.68.91,1a3.23,3.23,0,0,0,.91.63,2.63,2.63,0,0,0,1.12.22v.24h-.73a6,6,0,0,1-2.15-.33,4.41,4.41,0,0,1-1.37-.82c-.34-.33-.64-.64-.9-.94-.06-.08-.21-.28-.44-.61s-.48-.67-.74-1.05l-.74-1-.4-.56a6.79,6.79,0,0,0-1.1-1.11,2.07,2.07,0,0,0-1.3-.48v-.24q.75,0,1.35,0c.44,0,.89-.05,1.33-.11a2.56,2.56,0,0,0,1.25-.51,2.76,2.76,0,0,0,.91-1.42,3.17,3.17,0,0,0,.14-.62,3.61,3.61,0,0,0,0-.74,3.35,3.35,0,0,0-.25-1.18,2.78,2.78,0,0,0-.64-.91,3.07,3.07,0,0,0-1-.59,4.22,4.22,0,0,0-1.28-.24c-.74,0-1.39,0-1.95,0a4.34,4.34,0,0,1-.83,0,1.29,1.29,0,0,0-.06-.2l-.18-.54Z"/><path class="cls-1" d="M417,248.3c.45,0,.83,0,1.17,0s.62.07.86.11a3.22,3.22,0,0,1,.64.14l.49.15,0,2.35h-.28a1.87,1.87,0,0,0-.67-1.53,3.73,3.73,0,0,0-4.09.1,1.89,1.89,0,0,0-.82,1.6,2.79,2.79,0,0,0,.08.63,2.22,2.22,0,0,0,.29.63,2.82,2.82,0,0,0,.56.61l4.79,3.71a2.65,2.65,0,0,1,.81,1.15,4.35,4.35,0,0,1,.28,1.39,3.25,3.25,0,0,1-.54,1.92A4,4,0,0,1,419,262.7a4.47,4.47,0,0,1-2.13.51,9.92,9.92,0,0,1-1.48-.12,8.33,8.33,0,0,1-1.49-.36,3.85,3.85,0,0,1-1.14-.63,4.93,4.93,0,0,1-.07-.85,8.34,8.34,0,0,1,.08-1.08,7.77,7.77,0,0,1,.23-1h.29a3.18,3.18,0,0,0,.3,1.83,2.65,2.65,0,0,0,1.19,1.15,3.8,3.8,0,0,0,1.83.37,3.72,3.72,0,0,0,2.32-.75,2.31,2.31,0,0,0,.84-1.86,2.59,2.59,0,0,0-.2-1,2.64,2.64,0,0,0-.66-.87l-4.75-3.66a3,3,0,0,1-.9-1.26,3.9,3.9,0,0,1-.24-1.3,3.09,3.09,0,0,1,.53-1.76,3.8,3.8,0,0,1,1.41-1.25A4.31,4.31,0,0,1,417,248.3Zm3.14.21,0,.43h-1.69v-.43Z"/><path class="cls-1" d="M428.41,250.15h-.07a1.2,1.2,0,0,0-.49-.91,1.75,1.75,0,0,0-1.13-.37h-.33v-.24h2Zm0,11.21v1.52h-2v-.24h.33a1.7,1.7,0,0,0,1.13-.38,1.21,1.21,0,0,0,.49-.9Zm1.42-12.73v14.25h-1.49V248.63Zm-.07,1.52v-1.52h2l0,.24h-.3a1.73,1.73,0,0,0-1.13.37,1.2,1.2,0,0,0-.49.91Zm0,11.21h.07a1.21,1.21,0,0,0,.49.9,1.68,1.68,0,0,0,1.13.38h.3l0,.24h-2Z"/><path class="cls-1" d="M436.12,248.23c.15.05.36.1.66.17s.62.11,1,.15a9.4,9.4,0,0,0,1,.06l-2.66.24Zm13,.38v.71h-13v-.71Zm-11.59.66v0a1.25,1.25,0,0,0-.87.37,1.2,1.2,0,0,0-.32.84v.38h-.26v-1.64Zm4.35,12.09v1.52h-1.74v-.24h.29a1.33,1.33,0,0,0,1-.38,1.28,1.28,0,0,0,.43-.9Zm1.49-12.66v14.18h-1.54V248.7Zm-.07,12.66h.07a1.28,1.28,0,0,0,.43.9,1.33,1.33,0,0,0,1,.38h.26v.24h-1.73Zm5.82-13.13v.62l-2.66-.24a9.08,9.08,0,0,0,1-.06c.35,0,.68-.09,1-.15S449,248.28,449.16,248.23Zm0,1v1.64h-.26v-.38a1.2,1.2,0,0,0-.32-.84,1.25,1.25,0,0,0-.87-.37v0Z"/><path class="cls-1" d="M456.8,250.13l-2-.07a3,3,0,0,0-.94-.87,2.5,2.5,0,0,0-1.25-.32h-.28v-.24h5.5v.24h-.28a.78.78,0,0,0-.75.42A.82.82,0,0,0,456.8,250.13Zm-.83-1.47,4.4,7.81-1,.83-5.48-8.64Zm3.28,12.7v1.52h-1.73v-.24h.28a1.3,1.3,0,0,0,1-.38,1.31,1.31,0,0,0,.42-.9Zm1.47-4.61v6.13h-1.54v-6.13Zm4-8.09h1.5l-5.66,8.59-.87-.26Zm-4.06,12.7h.07a1.31,1.31,0,0,0,.42.9,1.3,1.3,0,0,0,1,.38h.28v.24h-1.73Zm3.16-11.21a.85.85,0,0,0,0-.88.83.83,0,0,0-.76-.4h-.28v-.24h5v.24h-.29a2.25,2.25,0,0,0-1.24.37,3.27,3.27,0,0,0-.92.84Z"/><path class="cls-1" d="M50.07,286.39v1.73H47.44v-.24h.38a1.83,1.83,0,0,0,1.14-.39,1.6,1.6,0,0,0,.59-1.1Zm1.26-15.22h.24l.47,1.4-1.4,15.55H49.36Zm-.57,15.6v.11a1,1,0,0,0,.27.7.84.84,0,0,0,.66.33H52v.21H50.59v-1.35Zm.81-15.6L58.41,286l-.55,2.49-6.74-14.63Zm13.1,0,.2,1.59-6,13.27c-.24.54-.42,1-.55,1.36a6,6,0,0,0-.26,1.06h-.24L57.53,287Zm.29,15.6h.17v1.35H63.68v-.21H64a.83.83,0,0,0,.67-.33,1.08,1.08,0,0,0,.26-.7v-.11Zm-.07-15.6,2,16.95H65.08l-1.31-14.39.9-2.56Zm1.33,15.22h.5a1.7,1.7,0,0,0,.61,1.1,1.8,1.8,0,0,0,1.12.39h.38v.24H66.22Z"/><path class="cls-1" d="M74.24,273.87v1.26h0a1,1,0,0,0-.35-.72,1.11,1.11,0,0,0-.79-.3H72.7v-.24Zm1.48,0v9a5.32,5.32,0,0,0,1.17,3.63,4.06,4.06,0,0,0,3.22,1.33,4.87,4.87,0,0,0,3.55-1.26A4.58,4.58,0,0,0,85,283.11v-9.24H86v9.24a5,5,0,0,1-1.57,3.9,6.21,6.21,0,0,1-4.34,1.44A6.28,6.28,0,0,1,75.8,287a5,5,0,0,1-1.6-3.9v-9.26Zm1.49,0v.24h-.35a1.17,1.17,0,0,0-.8.3.92.92,0,0,0-.34.72h0v-1.26Zm7.79,0v1.26h0a.94.94,0,0,0-.33-.72,1.16,1.16,0,0,0-.81-.3h-.35v-.24Zm2.54,0v.24h-.36a1.12,1.12,0,0,0-.78.3,1,1,0,0,0-.36.72h0v-1.26Z"/><path class="cls-1" d="M94.17,275.39h0a1.27,1.27,0,0,0-.43-.91,1.41,1.41,0,0,0-1-.37h-.28v-.24h1.76Zm0,11.21.3,1.52H92.41v-.24h.33a1.35,1.35,0,0,0,1.38-1.28Zm1.47-12.73v14.25H94.12V273.87Zm-.07,1.52v-1.52h1.75v.24H97a1.43,1.43,0,0,0-1,.37,1.18,1.18,0,0,0-.41.91Zm6.45,12,0,.74H95.59v-.74Zm1.33-2.66-1.3,3.4H98.44l.81-.74a4.51,4.51,0,0,0,1.91-.34,3.13,3.13,0,0,0,1.17-1,7.23,7.23,0,0,0,.79-1.37Z"/><path class="cls-1" d="M104.33,273.47c.14,0,.36.1.65.17s.62.11,1,.15a9.26,9.26,0,0,0,1,.06l-2.66.24Zm13,.38v.71h-13v-.71Zm-11.58.66v.05a1.18,1.18,0,0,0-1.19,1.21v.38h-.26v-1.64Zm4.34,12.09v1.52h-1.73v-.24h.28a1.4,1.4,0,0,0,1-.38,1.24,1.24,0,0,0,.42-.9Zm1.5-12.66v14.18h-1.55V273.94Zm-.07,12.66h.07a1.27,1.27,0,0,0,.42.9,1.4,1.4,0,0,0,1,.38h.26v.24h-1.73Zm5.81-13.13v.62l-2.66-.24a9,9,0,0,0,1-.06q.54-.06,1-.15C117,273.57,117.22,273.52,117.36,273.47Zm0,1v1.64h-.26v-.38a1.16,1.16,0,0,0-.32-.84,1.2,1.2,0,0,0-.86-.37v-.05Z"/><path class="cls-1" d="M123.75,275.39h-.07a1.2,1.2,0,0,0-.49-.91,1.73,1.73,0,0,0-1.13-.37h-.33v-.24h2Zm0,11.21v1.52h-2v-.24h.33a1.73,1.73,0,0,0,1.13-.38,1.21,1.21,0,0,0,.49-.9Zm1.42-12.73v14.25h-1.49V273.87Zm-.07,1.52v-1.52h2l0,.24h-.31a1.73,1.73,0,0,0-1.13.37,1.2,1.2,0,0,0-.49.91Zm0,11.21h.07a1.21,1.21,0,0,0,.49.9,1.73,1.73,0,0,0,1.13.38h.31l0,.24h-2Z"/><path class="cls-1" d="M133.79,286.53v1.59h-2.47v-.24h.36a1.77,1.77,0,0,0,1.08-.35,1.36,1.36,0,0,0,.53-1Zm1.36-13h.23l.48,1.4-1.47,13.18h-1.31Zm-.64,13.34a1.09,1.09,0,0,0,.16.68.84.84,0,0,0,.71.35h.34v.21h-1.36v-1.24Zm.87-13.34L141.84,286l-.54,2.49-6.37-12.3Zm12.33,0,.21,1.54L142.36,286c-.23.54-.41,1-.54,1.36a9,9,0,0,0-.29,1.06h-.23L141,287Zm.21,0,2.14,14.58h-1.81l-1.54-11.94,1-2.64Zm.17,13.34h.16v1.24h-1.37v-.21h.35a.81.81,0,0,0,.73-.36A1.07,1.07,0,0,0,148.09,286.88Zm1.25-.35h.48a1.44,1.44,0,0,0,.57,1,1.78,1.78,0,0,0,1.07.35h.35v.24h-2.47Z"/><path class="cls-1" d="M157.77,275.37h0a1.23,1.23,0,0,0-.41-.9,1.34,1.34,0,0,0-1-.36H156v-.24h2.06Zm0,11.23.31,1.52H156v-.24h.33a1.35,1.35,0,0,0,1.38-1.28Zm1.48-12.73v14.25h-1.52V273.87Zm6.36,0v.74H159.2v-.74Zm-1.09,6.77v.71H159.2v-.71Zm1.11,6.74,0,.74H159.2v-.74Zm1.33-2.66-1.3,3.4h-3.61l.81-.74a4.51,4.51,0,0,0,1.91-.34,3.13,3.13,0,0,0,1.17-1,7.23,7.23,0,0,0,.79-1.37Zm-1.35-11.23v.62l-2.71-.24a9.77,9.77,0,0,0,1.57-.13A6,6,0,0,0,165.61,273.49Zm-1.09,5.84v1.36h-1.24v-.05a.88.88,0,0,0,.74-.3,1.06,1.06,0,0,0,.24-.7v-.31Zm0,2v1.36h-.26v-.31a1.08,1.08,0,0,0-.24-.7.88.88,0,0,0-.74-.3v-.05Zm1.09-6.76v1.64h-.26v-.36A1.27,1.27,0,0,0,165,275a1.15,1.15,0,0,0-.87-.35v-.07Z"/><path class="cls-1" d="M173.18,275.42h0a1.35,1.35,0,0,0-1.38-1.31h-.29v-.24h1.71Zm0,11.16v1.54h-1.71v-.24h.31a1.27,1.27,0,0,0,.95-.39,1.37,1.37,0,0,0,.41-.91Zm1.5-12.71v14.25h-1.54V273.87Zm4.72,0a8.94,8.94,0,0,1,4.06.86,6.16,6.16,0,0,1,2.64,2.46,8.23,8.23,0,0,1,0,7.6,6.22,6.22,0,0,1-2.64,2.46,8.81,8.81,0,0,1-4.06.87h-5.05l0-.71h5.1a5.63,5.63,0,0,0,4.34-1.72,7.75,7.75,0,0,0,0-9.38,5.6,5.6,0,0,0-4.34-1.73h-5.34v-.71Z"/><path class="cls-1" d="M193.91,275.39h-.07a1.17,1.17,0,0,0-.49-.91,1.72,1.72,0,0,0-1.12-.37h-.34v-.24h2Zm0,11.21v1.52h-2v-.24h.34a1.73,1.73,0,0,0,1.12-.38,1.18,1.18,0,0,0,.49-.9Zm1.43-12.73v14.25h-1.5V273.87Zm-.07,1.52v-1.52h2l0,.24H197a1.75,1.75,0,0,0-1.13.37,1.16,1.16,0,0,0-.48.91Zm0,11.21h.07a1.17,1.17,0,0,0,.48.9,1.75,1.75,0,0,0,1.13.38h.31l0,.24h-2Z"/><path class="cls-1" d="M204.69,286.39a1.07,1.07,0,0,0,.07,1.1,1,1,0,0,0,.76.39h.19v.24h-4.53v-.24h.19a1.85,1.85,0,0,0,1-.34,2.72,2.72,0,0,0,.9-1.15Zm4.58-12.85.17,1.64L204,288.05h-1.49L208.13,276c.18-.38.33-.71.44-1s.23-.55.32-.82a2.93,2.93,0,0,0,.17-.64Zm2.81,9v.71h-6.3v-.71Zm-2.81-9L215.8,288h-1.87l-5.06-12.33Zm4,12.85h1.8a2.62,2.62,0,0,0,.88,1.15,1.82,1.82,0,0,0,1,.34h.19v.24h-4.87v-.24h.19a1,1,0,0,0,.73-.39A1,1,0,0,0,213.29,286.39Z"/><path class="cls-1" d="M231.76,273.23h-.07a1.55,1.55,0,0,0-.47-1.06,1.43,1.43,0,0,0-1.05-.43h-.31v-.24h1.9Zm0,13.16v1.73h-1.9v-.24h.31a1.4,1.4,0,0,0,1.05-.44,1.51,1.51,0,0,0,.47-1.05Zm1.47-14.89v16.62h-1.54V271.5Zm-.07,1.73V271.5h1.9v.24h-.31a1.46,1.46,0,0,0-1.06.43,1.58,1.58,0,0,0-.46,1.06Zm0,13.16h.07a1.54,1.54,0,0,0,.46,1.05,1.44,1.44,0,0,0,1.06.44h.31v.24h-1.9Z"/><path class="cls-1" d="M241.8,286.65v1.47H240v-.24h.4a1.33,1.33,0,0,0,.93-.35,1.19,1.19,0,0,0,.38-.88Zm-.05-13.13,1,1.33,0,13.27h-1.07V276.48a25.65,25.65,0,0,0-.21-3Zm0,0,13.16,12.39.24,2.54L242,276Zm1.05,13.13a1.16,1.16,0,0,0,.39.88,1.35,1.35,0,0,0,.92.35h.4v.24h-1.78v-1.47Zm11.3-11.31a1.21,1.21,0,0,0-.4-.87,1.31,1.31,0,0,0-.93-.36h-.4v-.24h1.78v1.47Zm1.05-1.47v11.54c0,.51,0,1,0,1.46s.09,1,.17,1.58h-.21l-1.05-1.26V273.87Zm-.07,1.47v-1.47h1.78v.24h-.41a1.29,1.29,0,0,0-.91.36,1.13,1.13,0,0,0-.39.87Z"/><path class="cls-1" d="M260.77,273.47c.15,0,.36.1.66.17s.62.11,1,.15a9.55,9.55,0,0,0,1,.06l-2.66.24Zm13,.38v.71h-13v-.71Zm-11.59.66v.05a1.25,1.25,0,0,0-.87.37,1.2,1.2,0,0,0-.32.84v.38h-.26v-1.64Zm4.35,12.09v1.52h-1.74v-.24h.29a1.38,1.38,0,0,0,1-.38,1.28,1.28,0,0,0,.43-.9Zm1.49-12.66v14.18h-1.54V273.94ZM268,286.6h.07a1.28,1.28,0,0,0,.43.9,1.38,1.38,0,0,0,1,.38h.26v.24H268Zm5.82-13.13v.62l-2.66-.24a9.08,9.08,0,0,0,1-.06c.35,0,.68-.09,1-.15S273.67,273.52,273.81,273.47Zm0,1v1.64h-.26v-.38a1.2,1.2,0,0,0-.32-.84,1.25,1.25,0,0,0-.87-.37v-.05Z"/><path class="cls-1" d="M279.93,275.37h0a1.23,1.23,0,0,0-.41-.9,1.34,1.34,0,0,0-1-.36h-.33v-.24h2.06Zm0,11.23.31,1.52h-2.06v-.24h.33a1.35,1.35,0,0,0,1.38-1.28Zm1.48-12.73v14.25h-1.52V273.87Zm6.36,0v.74h-6.41v-.74Zm-1.09,6.77v.71h-5.32v-.71Zm1.11,6.74,0,.74h-6.39v-.74Zm1.33-2.66-1.3,3.4h-3.61l.81-.74a4.51,4.51,0,0,0,1.91-.34,3.13,3.13,0,0,0,1.17-1,7.23,7.23,0,0,0,.79-1.37Zm-1.35-11.23v.62l-2.71-.24a9.77,9.77,0,0,0,1.57-.13A6,6,0,0,0,287.77,273.49Zm-1.09,5.84v1.36h-1.24v-.05a.88.88,0,0,0,.74-.3,1.06,1.06,0,0,0,.24-.7v-.31Zm0,2v1.36h-.26v-.31a1.08,1.08,0,0,0-.24-.7.88.88,0,0,0-.74-.3v-.05Zm1.09-6.76v1.64h-.26v-.36a1.27,1.27,0,0,0-.32-.86,1.15,1.15,0,0,0-.87-.35v-.07Z"/><path class="cls-1" d="M295.39,275.39h-.05a1.22,1.22,0,0,0-.42-.91,1.42,1.42,0,0,0-1-.37h-.29v-.24h1.76Zm0,11.21.31,1.52h-2.07v-.24H294a1.33,1.33,0,0,0,1-.38,1.29,1.29,0,0,0,.4-.9Zm1.47-12.73v14.25h-1.52V273.87Zm-.07,1.52v-1.52h1.76v.24h-.29a1.41,1.41,0,0,0-1,.37,1.16,1.16,0,0,0-.42.91Zm6.46,12-.05.74h-6.38v-.74Zm1.33-2.66-1.31,3.4h-3.6l.8-.74a4.48,4.48,0,0,0,1.91-.34,3.09,3.09,0,0,0,1.18-1,6.7,6.7,0,0,0,.78-1.37Z"/><path class="cls-1" d="M310.28,275.39h0a1.27,1.27,0,0,0-.43-.91,1.4,1.4,0,0,0-1-.37h-.29v-.24h1.76Zm0,11.21.31,1.52h-2.07v-.24h.33a1.35,1.35,0,0,0,1-.38,1.34,1.34,0,0,0,.4-.9Zm1.47-12.73v14.25h-1.52V273.87Zm-.07,1.52v-1.52h1.76v.24h-.29a1.39,1.39,0,0,0-1,.37,1.16,1.16,0,0,0-.42.91Zm6.46,12-.05.74H311.7v-.74Zm1.33-2.66-1.31,3.4h-3.61l.81-.74a4.48,4.48,0,0,0,1.91-.34,3.16,3.16,0,0,0,1.18-1,6.7,6.7,0,0,0,.78-1.37Z"/><path class="cls-1" d="M325.43,275.39h-.07a1.2,1.2,0,0,0-.49-.91,1.75,1.75,0,0,0-1.13-.37h-.33v-.24h2Zm0,11.21v1.52h-2v-.24h.33a1.75,1.75,0,0,0,1.13-.38,1.21,1.21,0,0,0,.49-.9Zm1.42-12.73v14.25h-1.49V273.87Zm-.07,1.52v-1.52h2l0,.24h-.31a1.73,1.73,0,0,0-1.13.37,1.2,1.2,0,0,0-.49.91Zm0,11.21h.07a1.21,1.21,0,0,0,.49.9,1.73,1.73,0,0,0,1.13.38h.31l0,.24h-2Z"/><path class="cls-1" d="M341.43,273.54a12.09,12.09,0,0,1,2.05.16,9.62,9.62,0,0,1,1.83.47A8.46,8.46,0,0,1,347,275l.52,3.35h-.21a5.57,5.57,0,0,0-1.08-2.31,4.54,4.54,0,0,0-1.93-1.34,8.37,8.37,0,0,0-2.85-.44,6.08,6.08,0,0,0-3.17.82,5.6,5.6,0,0,0-2.13,2.33,8.86,8.86,0,0,0,0,7.18,5.58,5.58,0,0,0,2.14,2.34,6.07,6.07,0,0,0,3.18.82,8.38,8.38,0,0,0,1.9-.21,7.37,7.37,0,0,0,1.75-.68,7.26,7.26,0,0,0,1.57-1.18l0-3.15a.78.78,0,0,0-.28-.69,1.24,1.24,0,0,0-.81-.24h-.34v-.24h4.35v.24h-.33c-.72,0-1.07.32-1.07,1v2.85a8.6,8.6,0,0,1-1.5,1.4,8.83,8.83,0,0,1-2.27,1.19,9.68,9.68,0,0,1-7.1-.45,6.59,6.59,0,0,1-2.71-2.57,8.55,8.55,0,0,1,0-7.95,6.46,6.46,0,0,1,2.73-2.57A8.82,8.82,0,0,1,341.43,273.54Z"/><path class="cls-1" d="M355.51,275.37h-.05a1.22,1.22,0,0,0-.4-.9,1.35,1.35,0,0,0-1-.36h-.34v-.24h2.07Zm0,11.23.31,1.52h-2.07v-.24h.34a1.33,1.33,0,0,0,1-.38,1.29,1.29,0,0,0,.4-.9ZM357,273.87v14.25h-1.52V273.87Zm6.37,0v.74h-6.42v-.74Zm-1.1,6.77v.71h-5.32v-.71Zm1.12,6.74-.05.74h-6.39v-.74Zm1.33-2.66-1.31,3.4h-3.61l.81-.74a4.48,4.48,0,0,0,1.91-.34,3.09,3.09,0,0,0,1.18-1,6.7,6.7,0,0,0,.78-1.37Zm-1.35-11.23v.62l-2.71-.24a9.86,9.86,0,0,0,1.57-.13A6,6,0,0,0,363.35,273.49Zm-1.1,5.84v1.36H361v-.05a.86.86,0,0,0,.73-.3,1.06,1.06,0,0,0,.24-.7v-.31Zm0,2v1.36H362v-.31a1.08,1.08,0,0,0-.24-.7.86.86,0,0,0-.73-.3v-.05Zm1.1-6.76v1.64h-.27v-.36a1.23,1.23,0,0,0-.32-.86,1.11,1.11,0,0,0-.86-.35v-.07Z"/><path class="cls-1" d="M370.75,286.65v1.47H369v-.24h.41a1.32,1.32,0,0,0,.92-.35,1.15,1.15,0,0,0,.38-.88Zm0-13.13,1,1.33,0,13.27h-1.07V276.48a25.65,25.65,0,0,0-.21-3Zm0,0,13.15,12.39.24,2.54L370.94,276Zm1,13.13a1.16,1.16,0,0,0,.39.88,1.35,1.35,0,0,0,.92.35h.4v.24h-1.78v-1.47Zm11.3-11.31a1.21,1.21,0,0,0-.4-.87,1.29,1.29,0,0,0-.93-.36h-.4v-.24h1.78v1.47Zm1.05-1.47v11.54c0,.51,0,1,0,1.46s.09,1,.17,1.58h-.21l-1.05-1.26V273.87Zm-.07,1.47v-1.47h1.78v.24h-.41a1.29,1.29,0,0,0-.91.36,1.13,1.13,0,0,0-.39.87Z"/><path class="cls-1" d="M389.72,273.47c.15,0,.36.1.66.17s.62.11,1,.15a9.55,9.55,0,0,0,1,.06l-2.66.24Zm13,.38v.71h-13v-.71Zm-11.59.66v.05a1.2,1.2,0,0,0-.86.37,1.16,1.16,0,0,0-.32.84v.38h-.27v-1.64Zm4.35,12.09v1.52h-1.74v-.24h.29a1.38,1.38,0,0,0,1-.38,1.28,1.28,0,0,0,.43-.9ZM397,273.94v14.18h-1.54V273.94Zm-.07,12.66H397a1.28,1.28,0,0,0,.43.9,1.38,1.38,0,0,0,1,.38h.27v.24h-1.74Zm5.82-13.13v.62l-2.66-.24a9.08,9.08,0,0,0,1-.06c.36,0,.68-.09,1-.15A6.87,6.87,0,0,0,402.76,273.47Zm0,1v1.64h-.26v-.38a1.2,1.2,0,0,0-.32-.84,1.25,1.25,0,0,0-.87-.37v-.05Z"/><path class="cls-1" d="M415,271.05a5.57,5.57,0,0,0,.73.19c.32.06.68.12,1.08.16a8.63,8.63,0,0,0,1.09.07l-2.9.27Zm13.75.42v.72H415v-.72Zm-12.11.65v.07a1.42,1.42,0,0,0-1,.42,1.37,1.37,0,0,0-.41,1V274l-.24,0v-1.92Zm4.54,14.27v1.73h-1.9v-.24h.31a1.4,1.4,0,0,0,1.05-.44,1.51,1.51,0,0,0,.47-1.05Zm1.47-14.82v16.55h-1.54V271.57Zm-.07,14.82h.07a1.54,1.54,0,0,0,.46,1.05,1.44,1.44,0,0,0,1.06.44h.31v.24h-1.9Zm6.17-15.34v.69l-2.89-.27a8.66,8.66,0,0,0,1.1-.07c.39,0,.75-.1,1.08-.16A4.41,4.41,0,0,0,428.71,271.05Zm0,1.07V274l-.24,0v-.41a1.34,1.34,0,0,0-.41-1,1.48,1.48,0,0,0-1-.42v-.07Z"/><path class="cls-1" d="M435,275.37h0a1.23,1.23,0,0,0-.41-.9,1.34,1.34,0,0,0-1-.36h-.33v-.24h2.07Zm0,11.23.31,1.52H433.2v-.24h.33a1.35,1.35,0,0,0,1.38-1.28Zm1.47-12.73v14.25h-1.52V273.87Zm6.36,0v.74h-6.41v-.74Zm-1.09,6.77v.71h-5.32v-.71Zm1.12,6.74-.05.74h-6.39v-.74Zm1.33-2.66-1.31,3.4h-3.61l.81-.74A4.48,4.48,0,0,0,442,287a3.13,3.13,0,0,0,1.17-1,6.73,6.73,0,0,0,.79-1.37Zm-1.36-11.23v.62l-2.7-.24a9.65,9.65,0,0,0,1.56-.13A5.6,5.6,0,0,0,442.79,273.49Zm-1.09,5.84v1.36h-1.24v-.05a.88.88,0,0,0,.74-.3,1.06,1.06,0,0,0,.24-.7v-.31Zm0,2v1.36h-.26v-.31a1.08,1.08,0,0,0-.24-.7.88.88,0,0,0-.74-.3v-.05Zm1.09-6.76v1.64h-.26v-.36a1.27,1.27,0,0,0-.32-.86,1.12,1.12,0,0,0-.87-.35v-.07Z"/><path class="cls-1" d="M463.4,282.14l-.26,3.25a6,6,0,0,1-1.61,1.64,7.68,7.68,0,0,1-2.26,1.05,9.85,9.85,0,0,1-6.83-.55,6.49,6.49,0,0,1-2.72-2.57,8.87,8.87,0,0,1,0-7.95,6.43,6.43,0,0,1,2.72-2.57,9.09,9.09,0,0,1,4.17-.9,12.22,12.22,0,0,1,3,.38,8.85,8.85,0,0,1,2.59,1.07l.52,3.35h-.21a4.74,4.74,0,0,0-2.11-3.14,7.22,7.22,0,0,0-3.78-.95,6.24,6.24,0,0,0-3.24.82,5.51,5.51,0,0,0-2.12,2.33,8.9,8.9,0,0,0,0,7.15,5.44,5.44,0,0,0,2.13,2.32,6.41,6.41,0,0,0,3.25.85,8.47,8.47,0,0,0,3.22-.59,5.29,5.29,0,0,0,2.34-1.81,6,6,0,0,0,1-3.18Z"/><path class="cls-1" d="M470.1,275.39H470a1.25,1.25,0,0,0-.41-.91,1.33,1.33,0,0,0-1-.37h-.29v-.24h1.74Zm0,11.21v1.52h-1.74v-.24h.29a1.34,1.34,0,0,0,1-.38,1.26,1.26,0,0,0,.41-.9Zm1.44-12.73v14.25H470V273.87Zm9,6.86v.72h-9.26v-.72Zm-9.07-5.34v-1.52h1.74v.24h-.29a1.37,1.37,0,0,0-1,.37,1.18,1.18,0,0,0-.41.91Zm0,11.21h.07a1.19,1.19,0,0,0,.41.9,1.38,1.38,0,0,0,1,.38h.29v.24h-1.74Zm8.91-11.21h-.07a1.3,1.3,0,0,0-.42-.91,1.33,1.33,0,0,0-1-.37h-.29v-.24h1.74Zm0,11.21v1.52h-1.74v-.24h.29a1.34,1.34,0,0,0,1-.38,1.31,1.31,0,0,0,.42-.9Zm1.45-12.73v14.25h-1.52V273.87Zm-.08,1.52v-1.52h1.74v.24h-.29a1.33,1.33,0,0,0-1,.37,1.25,1.25,0,0,0-.41.91Zm0,11.21h.08a1.26,1.26,0,0,0,.41.9,1.34,1.34,0,0,0,1,.38h.29v.24h-1.74Z"/><path class="cls-1" d="M490.11,286.65v1.47h-1.78v-.24h.4a1.33,1.33,0,0,0,.93-.35,1.19,1.19,0,0,0,.38-.88Zm-.05-13.13,1,1.33,0,13.27H490V276.48a25.65,25.65,0,0,0-.21-3Zm0,0,13.16,12.39.24,2.54L490.3,276Zm1.05,13.13a1.16,1.16,0,0,0,.39.88,1.35,1.35,0,0,0,.92.35h.4v.24H491v-1.47Zm11.3-11.31a1.21,1.21,0,0,0-.4-.87,1.31,1.31,0,0,0-.93-.36h-.4v-.24h1.78v1.47Zm1-1.47v11.54c0,.51,0,1,0,1.46s.09,1,.17,1.58h-.21l-1-1.26V273.87Zm-.08,1.47v-1.47h1.79v.24h-.41a1.29,1.29,0,0,0-.91.36,1.13,1.13,0,0,0-.39.87Z"/><path class="cls-1" d="M517.8,273.54a9.13,9.13,0,0,1,3.12.53,7.71,7.71,0,0,1,2.56,1.54,7.11,7.11,0,0,1,1.73,2.36,7.29,7.29,0,0,1-1.73,8.42,7.86,7.86,0,0,1-2.56,1.53,9.13,9.13,0,0,1-3.12.53,9,9,0,0,1-3.11-.53,8,8,0,0,1-2.56-1.53,7.54,7.54,0,0,1-1.72-8.42,7.08,7.08,0,0,1,1.72-2.36,7.81,7.81,0,0,1,2.56-1.54A9,9,0,0,1,517.8,273.54Zm0,14.2a6.07,6.07,0,0,0,5.43-3.23,7.8,7.8,0,0,0,0-7,6.09,6.09,0,0,0-5.43-3.22,6,6,0,0,0-3.16.86,6.18,6.18,0,0,0-2.26,2.36,7.88,7.88,0,0,0,0,7,6.21,6.21,0,0,0,2.26,2.37A6,6,0,0,0,517.8,287.74Z"/><path class="cls-1" d="M532.42,275.39h0a1.27,1.27,0,0,0-.43-.91,1.41,1.41,0,0,0-1-.37h-.28v-.24h1.75Zm0,11.21.31,1.52h-2.06v-.24H531a1.33,1.33,0,0,0,1-.38,1.3,1.3,0,0,0,.41-.9Zm1.48-12.73v14.25h-1.52V273.87Zm-.08,1.52v-1.52h1.76v.24h-.28a1.43,1.43,0,0,0-1,.37,1.15,1.15,0,0,0-.41.91Zm6.46,12,0,.74h-6.39v-.74Zm1.33-2.66-1.3,3.4H536.7l.8-.74a4.52,4.52,0,0,0,1.92-.34,3.13,3.13,0,0,0,1.17-1,7.23,7.23,0,0,0,.79-1.37Z"/><path class="cls-1" d="M553.89,273.54a9.13,9.13,0,0,1,3.12.53,7.71,7.71,0,0,1,2.56,1.54,7,7,0,0,1,1.72,2.36,7.32,7.32,0,0,1-1.72,8.42,7.86,7.86,0,0,1-2.56,1.53,9.13,9.13,0,0,1-3.12.53,9,9,0,0,1-3.11-.53,8,8,0,0,1-2.56-1.53A7.54,7.54,0,0,1,546.5,278a7.08,7.08,0,0,1,1.72-2.36,7.81,7.81,0,0,1,2.56-1.54A9,9,0,0,1,553.89,273.54Zm0,14.2a6.07,6.07,0,0,0,5.43-3.23,7.8,7.8,0,0,0,0-7,6.09,6.09,0,0,0-5.43-3.22,6,6,0,0,0-3.16.86,6.18,6.18,0,0,0-2.26,2.36,7.88,7.88,0,0,0,0,7,6.21,6.21,0,0,0,2.26,2.37A6,6,0,0,0,553.89,287.74Z"/><path class="cls-1" d="M574.78,273.54a12.3,12.3,0,0,1,2.06.16,9.52,9.52,0,0,1,1.82.47,8.46,8.46,0,0,1,1.65.82l.53,3.35h-.22a5.57,5.57,0,0,0-1.08-2.31,4.54,4.54,0,0,0-1.93-1.34,8.29,8.29,0,0,0-2.85-.44,6.08,6.08,0,0,0-3.17.82,5.6,5.6,0,0,0-2.13,2.33,8.86,8.86,0,0,0,0,7.18,5.58,5.58,0,0,0,2.14,2.34,6.07,6.07,0,0,0,3.18.82,8.32,8.32,0,0,0,1.9-.21,7.37,7.37,0,0,0,1.75-.68,7.56,7.56,0,0,0,1.58-1.18l0-3.15a.8.8,0,0,0-.27-.69,1.27,1.27,0,0,0-.82-.24h-.34v-.24H583v.24h-.33c-.71,0-1.07.32-1.07,1v2.85a8.26,8.26,0,0,1-1.5,1.4,8.92,8.92,0,0,1-2.26,1.19,9,9,0,0,1-3,.47,8.91,8.91,0,0,1-4.09-.92A6.61,6.61,0,0,1,568,285a8.55,8.55,0,0,1,0-7.95,6.57,6.57,0,0,1,2.73-2.57A8.82,8.82,0,0,1,574.78,273.54Z"/><path class="cls-1" d="M590.52,275.37l-2-.07a2.76,2.76,0,0,0-.93-.87,2.5,2.5,0,0,0-1.25-.32H586v-.24h5.5v.24h-.28a.78.78,0,0,0-.75.42A.82.82,0,0,0,590.52,275.37Zm-.83-1.47,4.4,7.81-1,.83-5.48-8.64ZM593,286.6v1.52h-1.73v-.24h.28a1.34,1.34,0,0,0,1-.38,1.31,1.31,0,0,0,.42-.9Zm1.47-4.61v6.13H592.9V282Zm4-8.09h1.5l-5.66,8.59-.87-.26Zm-4.06,12.7h.07a1.27,1.27,0,0,0,.42.9,1.34,1.34,0,0,0,1,.38h.28v.24h-1.73Zm3.16-11.21a.85.85,0,0,0,0-.88.81.81,0,0,0-.76-.4h-.28v-.24h5v.24h-.29a2.25,2.25,0,0,0-1.24.37,3.13,3.13,0,0,0-.92.84Z"/><path class="cls-1" d="M393.89,110.75l-3,3,11.31,30.3,45.69-45.83L433,58.49,402.18,89.43l2.31,7.07-6.74,6.77-2.55-6.83-4.84,4.85Zm12.45-5.59,6,15.8-10.55,10.55-5.95-15.75Z"/><polygon class="cls-1" points="383.33 116.39 378.47 103.37 386.07 95.75 390.93 108.78 383.33 116.39"/><polygon class="cls-1" points="387.57 145.75 394.13 139.17 390.79 130.23 384.23 136.81 387.57 145.75"/><polygon class="cls-1" points="378.42 132.05 375.87 125.21 380.05 121.02 382.6 127.85 378.42 132.05"/><polygon class="cls-1" points="376.25 115.44 371.97 103.96 365.95 110 370.23 121.47 376.25 115.44"/><polygon class="cls-1" points="372.42 139.13 367.34 144.22 363.52 134.01 368.6 128.91 372.42 139.13"/><polygon class="cls-2" points="338.61 67.25 405.39 86.21 433.03 58.49 323.88 27.81 338.61 67.25"/><polygon id="Gradient" class="cls-3" points="338.61 67.25 405.39 86.21 433.03 58.49 323.88 27.81 338.61 67.25"/><path class="cls-1" d="M233.77,55.18l2.82-2.82L226.07,24.18,183.59,66.79l13.8,37L226.07,75l-2.15-6.57,6.27-6.29,2.37,6.35,4.5-4.52Zm-11.57,5.2-5.53-14.69,9.81-9.81L232,50.52Z"/><polygon class="cls-1" points="243.59 49.93 248.11 62.05 241.05 69.13 236.53 57.02 243.59 49.93"/><polygon class="cls-1" points="239.65 22.64 233.55 28.76 236.66 37.07 242.75 30.95 239.65 22.64"/><polygon class="cls-1" points="248.16 35.38 250.53 41.74 246.64 45.64 244.27 39.28 248.16 35.38"/><polygon class="cls-1" points="250.17 50.82 254.16 61.5 259.75 55.88 255.77 45.21 250.17 50.82"/><polygon class="cls-1" points="253.74 28.8 258.46 24.06 262.01 33.56 257.29 38.3 253.74 28.8"/><polygon class="cls-2" points="285.18 95.62 223.08 78 197.39 103.77 298.87 132.29 285.18 95.62"/><polygon id="Gradient-2" data-name="Gradient" class="cls-3" points="285.18 95.62 223.08 78 197.39 103.77 298.87 132.29 285.18 95.62"/></g></svg>